<svg width="60" height="60" viewBox="0 0 60 60" fill="none" xmlns="http://www.w3.org/2000/svg"><rect x="0.525" y="0.525" width="58.95" height="58.95" rx="6.975" stroke="#210F28" stroke-width="1.05" stroke-dasharray="3 3"></rect><g clip-path="url(#clip0_9225_2255)"><path d="M16.1384 8.70312H8.40625C8.01795 8.70312 7.70312 9.01795 7.70312 9.40625V51.5938C7.70312 51.9821 8.01795 52.2969 8.40625 52.2969H16.1384C16.5267 52.2969 16.8416 51.9821 16.8416 51.5938V9.40625C16.8416 9.01795 16.5267 8.70312 16.1384 8.70312ZM15.4353 50.8906H9.10938V47.0234H10.4948C10.8831 47.0234 11.1979 46.7086 11.1979 46.3203C11.1979 45.932 10.8831 45.6172 10.4948 45.6172H9.10938V41.75H11.3212C11.7095 41.75 12.0244 41.4352 12.0244 41.0469C12.0244 40.6586 11.7095 40.3438 11.3212 40.3438H9.10938V36.4766H10.4948C10.8831 36.4766 11.1979 36.1617 11.1979 35.7734C11.1979 35.3851 10.8831 35.0703 10.4948 35.0703H9.10938V31.2031H11.3212C11.7095 31.2031 12.0244 30.8883 12.0244 30.5C12.0244 30.1117 11.7095 29.7969 11.3212 29.7969H9.10938V25.9297H10.4948C10.8831 25.9297 11.1979 25.6149 11.1979 25.2266C11.1979 24.8383 10.8831 24.5234 10.4948 24.5234H9.10938V20.6562H11.3212C11.7095 20.6562 12.0244 20.3414 12.0244 19.9531C12.0244 19.5648 11.7095 19.25 11.3212 19.25H9.10938V15.3828H10.4948C10.8831 15.3828 11.1979 15.068 11.1979 14.6797C11.1979 14.2914 10.8831 13.9766 10.4948 13.9766H9.10938V10.1094H15.4353V50.8906ZM46.0232 50.0443C46.0232 50.2608 45.9234 50.4652 45.7528 50.5985L43.7688 52.1479C43.6403 52.2483 43.4878 52.2969 43.3365 52.2969C43.1274 52.2969 42.9205 52.2041 42.7819 52.0264C42.5429 51.7204 42.5972 51.2786 42.9032 51.0395L43.2774 50.7474H21.3797L21.7538 51.0395C22.0599 51.2786 22.1143 51.7204 21.8752 52.0264C21.6362 52.3326 21.1942 52.3868 20.8883 52.1478L18.9043 50.5984C18.7337 50.4651 18.6339 50.2607 18.6339 50.0442C18.6339 49.8278 18.7337 49.6233 18.9043 49.4901L20.8884 47.9407C21.1943 47.7016 21.6363 47.756 21.8753 48.062C22.1143 48.3681 22.06 48.81 21.7539 49.049L21.3799 49.3411H43.2774L42.9033 49.049C42.5973 48.81 42.5429 48.3681 42.7819 48.062C43.021 47.756 43.4628 47.7016 43.7689 47.9407L45.753 49.4901C45.9234 49.6234 46.0232 49.8278 46.0232 50.0443ZM19.3369 47.0233H44.2755C44.6638 47.0233 44.9786 46.7084 44.9786 46.3201V21.3433C44.9786 20.955 44.6638 20.6402 44.2755 20.6402H41.0777C41.5561 19.6162 41.8503 18.5888 41.8503 17.5861C41.8503 13.6348 38.6357 10.4203 34.6845 10.4203C30.7333 10.4203 27.5186 13.6349 27.5186 17.5861C27.5186 18.5888 27.8127 19.6161 28.2912 20.6402H19.3369C18.9486 20.6402 18.6338 20.955 18.6338 21.3433V46.3201C18.6337 46.7084 18.9486 47.0233 19.3369 47.0233ZM20.04 30.4517L22.8058 27.6858L37.5336 45.617H20.04V30.4517ZM39.3534 45.617L36.2926 41.8905L43.5723 34.6108V45.6171H39.3534V45.617ZM34.6845 11.8266C37.8603 11.8266 40.4441 14.4103 40.4441 17.5861C40.4441 20.3013 37.4417 23.7229 35.2495 26.2212C35.0553 26.4426 34.8663 26.6579 34.6844 26.8669C34.5025 26.6579 34.3136 26.4426 34.1194 26.2213C31.9272 23.7229 28.9248 20.3013 28.9248 17.5861C28.9248 14.4103 31.5087 11.8266 34.6845 11.8266ZM33.0625 27.1489C33.4519 27.5927 33.8197 28.0118 34.1476 28.3995C34.2812 28.5574 34.4775 28.6486 34.6844 28.6486C34.8913 28.6486 35.0876 28.5574 35.2212 28.3995C35.5491 28.0118 35.917 27.5926 36.3064 27.1487C36.418 27.0215 36.5313 26.8924 36.6451 26.7625C39.4774 27.0043 40.71 27.6719 40.91 27.9466C40.8018 28.0874 40.3386 28.4318 39.1351 28.7366C37.9168 29.0451 36.3362 29.2151 34.6844 29.2151C33.0326 29.2151 31.4521 29.0451 30.2337 28.7366C29.0302 28.4318 28.567 28.0873 28.4588 27.9466C28.6587 27.6719 29.8914 27.0043 32.7237 26.7625C32.8376 26.8924 32.9508 27.0216 33.0625 27.1489ZM31.6118 25.4731C29.7367 25.7296 27.0362 26.3728 27.0362 27.9476C27.0362 30.0582 31.8437 30.6213 34.6844 30.6213C37.5251 30.6213 42.3326 30.0582 42.3326 27.9476C42.3326 26.3728 39.6321 25.7296 37.757 25.4731C38.6777 24.3817 39.585 23.2249 40.3112 22.0463H43.5723V32.6219L35.3958 40.7985L23.805 26.6867L28.4452 22.0464H29.0576C29.7838 23.2249 30.6912 24.3817 31.6118 25.4731ZM26.4565 22.0464L20.0401 28.463V22.0464H26.4565ZM51.1479 44.7684L49.5985 46.7526C49.4652 46.9232 49.2608 47.0229 49.0443 47.0229C48.8279 47.0229 48.6234 46.9232 48.4902 46.7526L46.9408 44.7685C46.7018 44.4625 46.7561 44.0207 47.0621 43.7816C47.3681 43.5426 47.81 43.5968 48.0491 43.903L48.3412 44.2771V24.1372L48.049 24.5114C47.8099 24.8175 47.368 24.8717 47.062 24.6328C46.756 24.3937 46.7016 23.9519 46.9407 23.6458L48.4902 21.6618C48.6234 21.4912 48.8279 21.3915 49.0443 21.3915C49.2608 21.3915 49.4652 21.4912 49.5985 21.6618L51.1478 23.6458C51.3868 23.9519 51.3325 24.3938 51.0264 24.6328C50.7203 24.8717 50.2785 24.8173 50.0395 24.5114L49.7475 24.1373V44.2769L50.0396 43.9029C50.2787 43.5968 50.7205 43.5424 51.0265 43.7815C51.3326 44.0205 51.3869 44.4624 51.1479 44.7684ZM39.5643 17.5861C39.5643 14.8955 37.3752 12.7064 34.6845 12.7064C31.9938 12.7064 29.8047 14.8954 29.8047 17.5861C29.8047 20.2769 31.9938 22.4659 34.6845 22.4659C37.3752 22.4659 39.5643 20.2769 39.5643 17.5861ZM31.211 17.5861C31.211 15.6708 32.7692 14.1126 34.6845 14.1126C36.5998 14.1126 38.158 15.6708 38.158 17.5861C38.158 19.5015 36.5998 21.0597 34.6845 21.0597C32.7692 21.0597 31.211 19.5015 31.211 17.5861Z" fill="#210F28"></path></g><defs><clipPath id="clip0_9225_2255"><rect width="45" height="45" fill="white" transform="translate(7 8)"></rect></clipPath></defs></svg>