<svg width="60" height="60" viewBox="0 0 60 60" fill="none" xmlns="http://www.w3.org/2000/svg"><rect x="0.525" y="0.525" width="58.95" height="58.95" rx="6.975" stroke="#210F28" stroke-width="1.05" stroke-dasharray="3 3"></rect><mask id="path-2-outside-1_9225_2230" maskUnits="userSpaceOnUse" x="7.31836" y="8.31836" width="44" height="44" fill="black"><rect fill="white" x="7.31836" y="8.31836" width="44" height="44"></rect><path d="M33.1817 23.7931V9.8457C33.1817 9.55479 33.4182 9.31836 33.7091 9.31836C34 9.31836 34.2364 9.55479 34.2364 9.8457V23.5083C35.1197 24.1086 35.8914 24.8803 36.4917 25.7636H50.1543C50.4452 25.7636 50.6816 26 50.6816 26.2909C50.6816 26.5818 50.4452 26.8183 50.1543 26.8183H36.2069C36.0259 26.8183 35.8571 26.7251 35.7605 26.5713C35.1716 25.6344 34.3647 24.8284 33.4287 24.2396C33.2749 24.1438 33.1817 23.975 33.1817 23.7931ZM25.5722 36.7605C24.6361 36.1716 23.8293 35.3656 23.2404 34.4287C23.1437 34.2749 22.975 34.1817 22.7939 34.1817H8.8457C8.55479 34.1817 8.31836 34.4182 8.31836 34.7091C8.31836 35 8.55479 35.2364 8.8457 35.2364H22.5083C23.1086 36.1197 23.8803 36.8914 24.7636 37.4917V51.1543C24.7636 51.4452 25 51.6816 25.2909 51.6816C25.5818 51.6816 25.8183 51.4452 25.8183 51.1543V37.2069C25.8183 37.025 25.7251 36.8563 25.5722 36.7605ZM8.8457 25.7636C8.55479 25.7636 8.31836 26 8.31836 26.2909C8.31836 26.5818 8.55479 26.8183 8.8457 26.8183H22.7931C22.9741 26.8183 23.1429 26.7251 23.2396 26.5713C23.8284 25.6353 24.6344 24.8284 25.5713 24.2396C25.7251 24.1429 25.8183 23.9741 25.8183 23.7931V9.8457C25.8183 9.55479 25.5818 9.31836 25.2909 9.31836C25 9.31836 24.7636 9.55479 24.7636 9.8457V23.5083C23.8803 24.1086 23.1086 24.8803 22.5083 25.7636H8.8457ZM50.1543 35.2364C50.4452 35.2364 50.6816 35 50.6816 34.7091C50.6816 34.4182 50.4452 34.1817 50.1543 34.1817H36.2069C36.0259 34.1817 35.8571 34.2749 35.7605 34.4287C35.1716 35.3647 34.3647 36.1716 33.4287 36.7605C33.2749 36.8571 33.1817 37.0259 33.1817 37.2069V51.1543C33.1817 51.4452 33.4182 51.6816 33.7091 51.6816C34 51.6816 34.2364 51.4452 34.2364 51.1543V37.4917C35.1197 36.8914 35.8914 36.1197 36.4917 35.2364H50.1543ZM29.5 15.1358C29.7909 15.1358 30.0273 14.8994 30.0273 14.6085V12.3884C30.0273 12.0975 29.7909 11.861 29.5 11.861C29.2091 11.861 28.9727 12.0975 28.9727 12.3884V14.6085C28.9727 14.8994 29.2091 15.1358 29.5 15.1358ZM29.5 19.9936C29.7909 19.9936 30.0273 19.7571 30.0273 19.4662V17.2461C30.0273 16.9552 29.7909 16.7187 29.5 16.7187C29.2091 16.7187 28.9727 16.9552 28.9727 17.2461V19.4662C28.9727 19.7571 29.2091 19.9936 29.5 19.9936ZM29.5 24.8513C29.7909 24.8513 30.0273 24.6148 30.0273 24.3239V22.1038C30.0273 21.8129 29.7909 21.5765 29.5 21.5765C29.2091 21.5765 28.9727 21.8129 28.9727 22.1038V24.3239C28.9727 24.6148 29.2091 24.8513 29.5 24.8513ZM29.5 36.1487C29.2091 36.1487 28.9727 36.3852 28.9727 36.6761V38.8962C28.9727 39.1871 29.2091 39.4235 29.5 39.4235C29.7909 39.4235 30.0273 39.1871 30.0273 38.8962V36.6761C30.0273 36.3852 29.7909 36.1487 29.5 36.1487ZM29.5 41.0064C29.2091 41.0064 28.9727 41.2429 28.9727 41.5338V43.7539C28.9727 44.0448 29.2091 44.2812 29.5 44.2812C29.7909 44.2812 30.0273 44.0448 30.0273 43.7539V41.5338C30.0273 41.2429 29.7909 41.0064 29.5 41.0064ZM29.5 45.8642C29.2091 45.8642 28.9727 46.1006 28.9727 46.3915V48.6116C28.9727 48.9025 29.2091 49.139 29.5 49.139C29.7909 49.139 30.0273 48.9025 30.0273 48.6116V46.3915C30.0273 46.1006 29.7909 45.8642 29.5 45.8642ZM45.3915 29.9727C45.1006 29.9727 44.8642 30.2091 44.8642 30.5C44.8642 30.7909 45.1006 31.0273 45.3915 31.0273H47.6116C47.9025 31.0273 48.139 30.7909 48.139 30.5C48.139 30.2091 47.9025 29.9727 47.6116 29.9727H45.3915ZM40.5338 29.9727C40.2429 29.9727 40.0064 30.2091 40.0064 30.5C40.0064 30.7909 40.2429 31.0273 40.5338 31.0273H42.7539C43.0448 31.0273 43.2812 30.7909 43.2812 30.5C43.2812 30.2091 43.0448 29.9727 42.7539 29.9727H40.5338ZM35.6761 29.9727C35.3852 29.9727 35.1487 30.2091 35.1487 30.5C35.1487 30.7909 35.3852 31.0273 35.6761 31.0273H37.8962C38.1871 31.0273 38.4235 30.7909 38.4235 30.5C38.4235 30.2091 38.1871 29.9727 37.8962 29.9727H35.6761ZM21.1038 29.9727C20.8129 29.9727 20.5765 30.2091 20.5765 30.5C20.5765 30.7909 20.8129 31.0273 21.1038 31.0273H23.3239C23.6148 31.0273 23.8513 30.7909 23.8513 30.5C23.8513 30.2091 23.6148 29.9727 23.3239 29.9727H21.1038ZM16.2461 29.9727C15.9552 29.9727 15.7187 30.2091 15.7187 30.5C15.7187 30.7909 15.9552 31.0273 16.2461 31.0273H18.4662C18.7571 31.0273 18.9936 30.7909 18.9936 30.5C18.9936 30.2091 18.7571 29.9727 18.4662 29.9727H16.2461ZM11.3884 29.9727C11.0975 29.9727 10.861 30.2091 10.861 30.5C10.861 30.7909 11.0975 31.0273 11.3884 31.0273H13.6085C13.8994 31.0273 14.1358 30.7909 14.1358 30.5C14.1358 30.2091 13.8994 29.9727 13.6085 29.9727H11.3884ZM33.4709 30.5C33.4709 32.6894 31.6894 34.4709 29.5 34.4709C27.3106 34.4709 25.5291 32.6894 25.5291 30.5C25.5291 28.3106 27.3106 26.5291 29.5 26.5291C31.6894 26.5291 33.4709 28.3106 33.4709 30.5ZM32.4162 30.5C32.4162 28.8925 31.1084 27.5838 29.5 27.5838C27.8916 27.5838 26.5838 28.8916 26.5838 30.5C26.5838 32.1075 27.8916 33.4162 29.5 33.4162C31.1084 33.4162 32.4162 32.1075 32.4162 30.5ZM23.294 49.2849C23.294 50.6067 22.2191 51.6816 20.8973 51.6816C19.5754 51.6816 18.5005 50.6067 18.5005 49.2849C18.5005 48.144 19.3012 47.1878 20.3699 46.947V39.631H13.053C12.8122 40.6997 11.856 41.5004 10.7151 41.5004C9.39326 41.5004 8.31836 40.4255 8.31836 39.1036C8.31836 37.7817 9.39326 36.7068 10.7151 36.7068C11.856 36.7068 12.8122 37.5075 13.053 38.5763H20.6934C20.8357 38.5763 20.9711 38.6334 21.0704 38.7354C21.1346 38.8004 21.1987 38.8654 21.2646 38.9296C21.3666 39.0289 21.4237 39.1651 21.4237 39.3066V46.947C22.4925 47.1878 23.294 48.144 23.294 49.2849ZM12.0581 39.1036C12.0581 38.3636 11.4561 37.7615 10.716 37.7615C9.97598 37.7615 9.37305 38.3636 9.37305 39.1036C9.37305 39.8437 9.9751 40.4457 10.7151 40.4457C11.4552 40.4457 12.0581 39.8437 12.0581 39.1036ZM22.2394 49.2849C22.2394 48.5448 21.6373 47.9428 20.8973 47.9428C20.1572 47.9428 19.5552 48.5448 19.5552 49.2849C19.5552 50.0249 20.1563 50.627 20.8964 50.627C21.6364 50.627 22.2394 50.0249 22.2394 49.2849ZM35.706 11.7151C35.706 10.3933 36.7809 9.31836 38.1027 9.31836C39.4246 9.31836 40.4995 10.3933 40.4995 11.7151C40.4995 12.856 39.6988 13.8122 38.6301 14.053V21.369H45.9461C46.1869 20.3003 47.1432 19.4996 48.284 19.4996C49.6059 19.4996 50.6808 20.5745 50.6808 21.8964C50.6808 23.2183 49.6059 24.2932 48.284 24.2932C47.1432 24.2932 46.1869 23.4925 45.9461 22.4237H38.3058C38.1634 22.4237 38.028 22.3666 37.9287 22.2646C37.8646 22.1996 37.8004 22.1346 37.7345 22.0704C37.6325 21.9711 37.5754 21.8349 37.5754 21.6934V14.053C36.5075 13.8122 35.706 12.856 35.706 11.7151ZM46.9419 21.8964C46.9419 22.6364 47.5439 23.2385 48.284 23.2385C49.024 23.2385 49.6261 22.6364 49.6261 21.8964C49.6261 21.1563 49.024 20.5543 48.284 20.5543C47.5439 20.5543 46.9419 21.1563 46.9419 21.8964ZM36.7606 11.7151C36.7606 12.4552 37.3627 13.0572 38.1027 13.0572C38.8428 13.0572 39.4448 12.4552 39.4448 11.7151C39.4448 10.9751 38.8437 10.373 38.1036 10.373C37.3636 10.373 36.7606 10.9751 36.7606 11.7151ZM50.6816 39.1036C50.6816 40.4255 49.6067 41.5004 48.2849 41.5004C47.144 41.5004 46.1878 40.6997 45.947 39.631H38.631V46.947C39.6997 47.1878 40.5004 48.144 40.5004 49.2849C40.5004 50.6067 39.4255 51.6816 38.1036 51.6816C36.7817 51.6816 35.7068 50.6067 35.7068 49.2849C35.7068 48.144 36.5075 47.1878 37.5763 46.947V39.3066C37.5763 39.1643 37.6334 39.0289 37.7354 38.9296C37.8004 38.8654 37.8654 38.8013 37.9296 38.7354C38.0289 38.6343 38.1651 38.5763 38.3066 38.5763H45.947C46.1878 37.5075 47.144 36.7068 48.2849 36.7068C49.6067 36.706 50.6816 37.7817 50.6816 39.1036ZM38.1036 47.9419C37.3636 47.9419 36.7615 48.5439 36.7615 49.284C36.7615 50.024 37.3636 50.627 38.1036 50.627C38.8437 50.627 39.4457 50.0249 39.4457 49.2849C39.4457 48.5448 38.8437 47.9419 38.1036 47.9419ZM49.627 39.1036C49.627 38.3636 49.0249 37.7615 48.2849 37.7615C47.5448 37.7615 46.9428 38.3636 46.9428 39.1036C46.9428 39.8437 47.5448 40.4457 48.2849 40.4457C49.0249 40.4457 49.627 39.8437 49.627 39.1036ZM8.31836 21.8964C8.31836 20.5745 9.39326 19.4996 10.7151 19.4996C11.856 19.4996 12.8122 20.3003 13.053 21.369H20.369V14.053C19.3003 13.8122 18.4996 12.856 18.4996 11.7151C18.4996 10.3933 19.5745 9.31836 20.8964 9.31836C22.2183 9.31836 23.2932 10.3933 23.2932 11.7151C23.2932 12.856 22.4925 13.8122 21.4237 14.053V21.6934C21.4237 21.8357 21.3666 21.9711 21.2646 22.0704C21.1996 22.1346 21.1346 22.1987 21.0704 22.2646C20.9711 22.3666 20.8349 22.4237 20.6934 22.4237H13.053C12.8122 23.4925 11.856 24.2932 10.7151 24.2932C9.39326 24.294 8.31836 23.2183 8.31836 21.8964ZM20.8964 13.0581C21.6364 13.0581 22.2385 12.4561 22.2385 11.716C22.2385 10.976 21.6373 10.373 20.8964 10.373C20.1555 10.373 19.5543 10.9751 19.5543 11.7151C19.5543 12.4552 20.1563 13.0581 20.8964 13.0581ZM9.37305 21.8964C9.37305 22.6364 9.9751 23.2385 10.7151 23.2385C11.4552 23.2385 12.0572 22.6364 12.0572 21.8964C12.0572 21.1563 11.4552 20.5543 10.7151 20.5543C9.9751 20.5543 9.37305 21.1563 9.37305 21.8964Z"></path></mask><path d="M33.1817 23.7931V9.8457C33.1817 9.55479 33.4182 9.31836 33.7091 9.31836C34 9.31836 34.2364 9.55479 34.2364 9.8457V23.5083C35.1197 24.1086 35.8914 24.8803 36.4917 25.7636H50.1543C50.4452 25.7636 50.6816 26 50.6816 26.2909C50.6816 26.5818 50.4452 26.8183 50.1543 26.8183H36.2069C36.0259 26.8183 35.8571 26.7251 35.7605 26.5713C35.1716 25.6344 34.3647 24.8284 33.4287 24.2396C33.2749 24.1438 33.1817 23.975 33.1817 23.7931ZM25.5722 36.7605C24.6361 36.1716 23.8293 35.3656 23.2404 34.4287C23.1437 34.2749 22.975 34.1817 22.7939 34.1817H8.8457C8.55479 34.1817 8.31836 34.4182 8.31836 34.7091C8.31836 35 8.55479 35.2364 8.8457 35.2364H22.5083C23.1086 36.1197 23.8803 36.8914 24.7636 37.4917V51.1543C24.7636 51.4452 25 51.6816 25.2909 51.6816C25.5818 51.6816 25.8183 51.4452 25.8183 51.1543V37.2069C25.8183 37.025 25.7251 36.8563 25.5722 36.7605ZM8.8457 25.7636C8.55479 25.7636 8.31836 26 8.31836 26.2909C8.31836 26.5818 8.55479 26.8183 8.8457 26.8183H22.7931C22.9741 26.8183 23.1429 26.7251 23.2396 26.5713C23.8284 25.6353 24.6344 24.8284 25.5713 24.2396C25.7251 24.1429 25.8183 23.9741 25.8183 23.7931V9.8457C25.8183 9.55479 25.5818 9.31836 25.2909 9.31836C25 9.31836 24.7636 9.55479 24.7636 9.8457V23.5083C23.8803 24.1086 23.1086 24.8803 22.5083 25.7636H8.8457ZM50.1543 35.2364C50.4452 35.2364 50.6816 35 50.6816 34.7091C50.6816 34.4182 50.4452 34.1817 50.1543 34.1817H36.2069C36.0259 34.1817 35.8571 34.2749 35.7605 34.4287C35.1716 35.3647 34.3647 36.1716 33.4287 36.7605C33.2749 36.8571 33.1817 37.0259 33.1817 37.2069V51.1543C33.1817 51.4452 33.4182 51.6816 33.7091 51.6816C34 51.6816 34.2364 51.4452 34.2364 51.1543V37.4917C35.1197 36.8914 35.8914 36.1197 36.4917 35.2364H50.1543ZM29.5 15.1358C29.7909 15.1358 30.0273 14.8994 30.0273 14.6085V12.3884C30.0273 12.0975 29.7909 11.861 29.5 11.861C29.2091 11.861 28.9727 12.0975 28.9727 12.3884V14.6085C28.9727 14.8994 29.2091 15.1358 29.5 15.1358ZM29.5 19.9936C29.7909 19.9936 30.0273 19.7571 30.0273 19.4662V17.2461C30.0273 16.9552 29.7909 16.7187 29.5 16.7187C29.2091 16.7187 28.9727 16.9552 28.9727 17.2461V19.4662C28.9727 19.7571 29.2091 19.9936 29.5 19.9936ZM29.5 24.8513C29.7909 24.8513 30.0273 24.6148 30.0273 24.3239V22.1038C30.0273 21.8129 29.7909 21.5765 29.5 21.5765C29.2091 21.5765 28.9727 21.8129 28.9727 22.1038V24.3239C28.9727 24.6148 29.2091 24.8513 29.5 24.8513ZM29.5 36.1487C29.2091 36.1487 28.9727 36.3852 28.9727 36.6761V38.8962C28.9727 39.1871 29.2091 39.4235 29.5 39.4235C29.7909 39.4235 30.0273 39.1871 30.0273 38.8962V36.6761C30.0273 36.3852 29.7909 36.1487 29.5 36.1487ZM29.5 41.0064C29.2091 41.0064 28.9727 41.2429 28.9727 41.5338V43.7539C28.9727 44.0448 29.2091 44.2812 29.5 44.2812C29.7909 44.2812 30.0273 44.0448 30.0273 43.7539V41.5338C30.0273 41.2429 29.7909 41.0064 29.5 41.0064ZM29.5 45.8642C29.2091 45.8642 28.9727 46.1006 28.9727 46.3915V48.6116C28.9727 48.9025 29.2091 49.139 29.5 49.139C29.7909 49.139 30.0273 48.9025 30.0273 48.6116V46.3915C30.0273 46.1006 29.7909 45.8642 29.5 45.8642ZM45.3915 29.9727C45.1006 29.9727 44.8642 30.2091 44.8642 30.5C44.8642 30.7909 45.1006 31.0273 45.3915 31.0273H47.6116C47.9025 31.0273 48.139 30.7909 48.139 30.5C48.139 30.2091 47.9025 29.9727 47.6116 29.9727H45.3915ZM40.5338 29.9727C40.2429 29.9727 40.0064 30.2091 40.0064 30.5C40.0064 30.7909 40.2429 31.0273 40.5338 31.0273H42.7539C43.0448 31.0273 43.2812 30.7909 43.2812 30.5C43.2812 30.2091 43.0448 29.9727 42.7539 29.9727H40.5338ZM35.6761 29.9727C35.3852 29.9727 35.1487 30.2091 35.1487 30.5C35.1487 30.7909 35.3852 31.0273 35.6761 31.0273H37.8962C38.1871 31.0273 38.4235 30.7909 38.4235 30.5C38.4235 30.2091 38.1871 29.9727 37.8962 29.9727H35.6761ZM21.1038 29.9727C20.8129 29.9727 20.5765 30.2091 20.5765 30.5C20.5765 30.7909 20.8129 31.0273 21.1038 31.0273H23.3239C23.6148 31.0273 23.8513 30.7909 23.8513 30.5C23.8513 30.2091 23.6148 29.9727 23.3239 29.9727H21.1038ZM16.2461 29.9727C15.9552 29.9727 15.7187 30.2091 15.7187 30.5C15.7187 30.7909 15.9552 31.0273 16.2461 31.0273H18.4662C18.7571 31.0273 18.9936 30.7909 18.9936 30.5C18.9936 30.2091 18.7571 29.9727 18.4662 29.9727H16.2461ZM11.3884 29.9727C11.0975 29.9727 10.861 30.2091 10.861 30.5C10.861 30.7909 11.0975 31.0273 11.3884 31.0273H13.6085C13.8994 31.0273 14.1358 30.7909 14.1358 30.5C14.1358 30.2091 13.8994 29.9727 13.6085 29.9727H11.3884ZM33.4709 30.5C33.4709 32.6894 31.6894 34.4709 29.5 34.4709C27.3106 34.4709 25.5291 32.6894 25.5291 30.5C25.5291 28.3106 27.3106 26.5291 29.5 26.5291C31.6894 26.5291 33.4709 28.3106 33.4709 30.5ZM32.4162 30.5C32.4162 28.8925 31.1084 27.5838 29.5 27.5838C27.8916 27.5838 26.5838 28.8916 26.5838 30.5C26.5838 32.1075 27.8916 33.4162 29.5 33.4162C31.1084 33.4162 32.4162 32.1075 32.4162 30.5ZM23.294 49.2849C23.294 50.6067 22.2191 51.6816 20.8973 51.6816C19.5754 51.6816 18.5005 50.6067 18.5005 49.2849C18.5005 48.144 19.3012 47.1878 20.3699 46.947V39.631H13.053C12.8122 40.6997 11.856 41.5004 10.7151 41.5004C9.39326 41.5004 8.31836 40.4255 8.31836 39.1036C8.31836 37.7817 9.39326 36.7068 10.7151 36.7068C11.856 36.7068 12.8122 37.5075 13.053 38.5763H20.6934C20.8357 38.5763 20.9711 38.6334 21.0704 38.7354C21.1346 38.8004 21.1987 38.8654 21.2646 38.9296C21.3666 39.0289 21.4237 39.1651 21.4237 39.3066V46.947C22.4925 47.1878 23.294 48.144 23.294 49.2849ZM12.0581 39.1036C12.0581 38.3636 11.4561 37.7615 10.716 37.7615C9.97598 37.7615 9.37305 38.3636 9.37305 39.1036C9.37305 39.8437 9.9751 40.4457 10.7151 40.4457C11.4552 40.4457 12.0581 39.8437 12.0581 39.1036ZM22.2394 49.2849C22.2394 48.5448 21.6373 47.9428 20.8973 47.9428C20.1572 47.9428 19.5552 48.5448 19.5552 49.2849C19.5552 50.0249 20.1563 50.627 20.8964 50.627C21.6364 50.627 22.2394 50.0249 22.2394 49.2849ZM35.706 11.7151C35.706 10.3933 36.7809 9.31836 38.1027 9.31836C39.4246 9.31836 40.4995 10.3933 40.4995 11.7151C40.4995 12.856 39.6988 13.8122 38.6301 14.053V21.369H45.9461C46.1869 20.3003 47.1432 19.4996 48.284 19.4996C49.6059 19.4996 50.6808 20.5745 50.6808 21.8964C50.6808 23.2183 49.6059 24.2932 48.284 24.2932C47.1432 24.2932 46.1869 23.4925 45.9461 22.4237H38.3058C38.1634 22.4237 38.028 22.3666 37.9287 22.2646C37.8646 22.1996 37.8004 22.1346 37.7345 22.0704C37.6325 21.9711 37.5754 21.8349 37.5754 21.6934V14.053C36.5075 13.8122 35.706 12.856 35.706 11.7151ZM46.9419 21.8964C46.9419 22.6364 47.5439 23.2385 48.284 23.2385C49.024 23.2385 49.6261 22.6364 49.6261 21.8964C49.6261 21.1563 49.024 20.5543 48.284 20.5543C47.5439 20.5543 46.9419 21.1563 46.9419 21.8964ZM36.7606 11.7151C36.7606 12.4552 37.3627 13.0572 38.1027 13.0572C38.8428 13.0572 39.4448 12.4552 39.4448 11.7151C39.4448 10.9751 38.8437 10.373 38.1036 10.373C37.3636 10.373 36.7606 10.9751 36.7606 11.7151ZM50.6816 39.1036C50.6816 40.4255 49.6067 41.5004 48.2849 41.5004C47.144 41.5004 46.1878 40.6997 45.947 39.631H38.631V46.947C39.6997 47.1878 40.5004 48.144 40.5004 49.2849C40.5004 50.6067 39.4255 51.6816 38.1036 51.6816C36.7817 51.6816 35.7068 50.6067 35.7068 49.2849C35.7068 48.144 36.5075 47.1878 37.5763 46.947V39.3066C37.5763 39.1643 37.6334 39.0289 37.7354 38.9296C37.8004 38.8654 37.8654 38.8013 37.9296 38.7354C38.0289 38.6343 38.1651 38.5763 38.3066 38.5763H45.947C46.1878 37.5075 47.144 36.7068 48.2849 36.7068C49.6067 36.706 50.6816 37.7817 50.6816 39.1036ZM38.1036 47.9419C37.3636 47.9419 36.7615 48.5439 36.7615 49.284C36.7615 50.024 37.3636 50.627 38.1036 50.627C38.8437 50.627 39.4457 50.0249 39.4457 49.2849C39.4457 48.5448 38.8437 47.9419 38.1036 47.9419ZM49.627 39.1036C49.627 38.3636 49.0249 37.7615 48.2849 37.7615C47.5448 37.7615 46.9428 38.3636 46.9428 39.1036C46.9428 39.8437 47.5448 40.4457 48.2849 40.4457C49.0249 40.4457 49.627 39.8437 49.627 39.1036ZM8.31836 21.8964C8.31836 20.5745 9.39326 19.4996 10.7151 19.4996C11.856 19.4996 12.8122 20.3003 13.053 21.369H20.369V14.053C19.3003 13.8122 18.4996 12.856 18.4996 11.7151C18.4996 10.3933 19.5745 9.31836 20.8964 9.31836C22.2183 9.31836 23.2932 10.3933 23.2932 11.7151C23.2932 12.856 22.4925 13.8122 21.4237 14.053V21.6934C21.4237 21.8357 21.3666 21.9711 21.2646 22.0704C21.1996 22.1346 21.1346 22.1987 21.0704 22.2646C20.9711 22.3666 20.8349 22.4237 20.6934 22.4237H13.053C12.8122 23.4925 11.856 24.2932 10.7151 24.2932C9.39326 24.294 8.31836 23.2183 8.31836 21.8964ZM20.8964 13.0581C21.6364 13.0581 22.2385 12.4561 22.2385 11.716C22.2385 10.976 21.6373 10.373 20.8964 10.373C20.1555 10.373 19.5543 10.9751 19.5543 11.7151C19.5543 12.4552 20.1563 13.0581 20.8964 13.0581ZM9.37305 21.8964C9.37305 22.6364 9.9751 23.2385 10.7151 23.2385C11.4552 23.2385 12.0572 22.6364 12.0572 21.8964C12.0572 21.1563 11.4552 20.5543 10.7151 20.5543C9.9751 20.5543 9.37305 21.1563 9.37305 21.8964Z" fill="#210F28"></path><path d="M33.1817 23.7931V9.8457C33.1817 9.55479 33.4182 9.31836 33.7091 9.31836C34 9.31836 34.2364 9.55479 34.2364 9.8457V23.5083C35.1197 24.1086 35.8914 24.8803 36.4917 25.7636H50.1543C50.4452 25.7636 50.6816 26 50.6816 26.2909C50.6816 26.5818 50.4452 26.8183 50.1543 26.8183H36.2069C36.0259 26.8183 35.8571 26.7251 35.7605 26.5713C35.1716 25.6344 34.3647 24.8284 33.4287 24.2396C33.2749 24.1438 33.1817 23.975 33.1817 23.7931ZM25.5722 36.7605C24.6361 36.1716 23.8293 35.3656 23.2404 34.4287C23.1437 34.2749 22.975 34.1817 22.7939 34.1817H8.8457C8.55479 34.1817 8.31836 34.4182 8.31836 34.7091C8.31836 35 8.55479 35.2364 8.8457 35.2364H22.5083C23.1086 36.1197 23.8803 36.8914 24.7636 37.4917V51.1543C24.7636 51.4452 25 51.6816 25.2909 51.6816C25.5818 51.6816 25.8183 51.4452 25.8183 51.1543V37.2069C25.8183 37.025 25.7251 36.8563 25.5722 36.7605ZM8.8457 25.7636C8.55479 25.7636 8.31836 26 8.31836 26.2909C8.31836 26.5818 8.55479 26.8183 8.8457 26.8183H22.7931C22.9741 26.8183 23.1429 26.7251 23.2396 26.5713C23.8284 25.6353 24.6344 24.8284 25.5713 24.2396C25.7251 24.1429 25.8183 23.9741 25.8183 23.7931V9.8457C25.8183 9.55479 25.5818 9.31836 25.2909 9.31836C25 9.31836 24.7636 9.55479 24.7636 9.8457V23.5083C23.8803 24.1086 23.1086 24.8803 22.5083 25.7636H8.8457ZM50.1543 35.2364C50.4452 35.2364 50.6816 35 50.6816 34.7091C50.6816 34.4182 50.4452 34.1817 50.1543 34.1817H36.2069C36.0259 34.1817 35.8571 34.2749 35.7605 34.4287C35.1716 35.3647 34.3647 36.1716 33.4287 36.7605C33.2749 36.8571 33.1817 37.0259 33.1817 37.2069V51.1543C33.1817 51.4452 33.4182 51.6816 33.7091 51.6816C34 51.6816 34.2364 51.4452 34.2364 51.1543V37.4917C35.1197 36.8914 35.8914 36.1197 36.4917 35.2364H50.1543ZM29.5 15.1358C29.7909 15.1358 30.0273 14.8994 30.0273 14.6085V12.3884C30.0273 12.0975 29.7909 11.861 29.5 11.861C29.2091 11.861 28.9727 12.0975 28.9727 12.3884V14.6085C28.9727 14.8994 29.2091 15.1358 29.5 15.1358ZM29.5 19.9936C29.7909 19.9936 30.0273 19.7571 30.0273 19.4662V17.2461C30.0273 16.9552 29.7909 16.7187 29.5 16.7187C29.2091 16.7187 28.9727 16.9552 28.9727 17.2461V19.4662C28.9727 19.7571 29.2091 19.9936 29.5 19.9936ZM29.5 24.8513C29.7909 24.8513 30.0273 24.6148 30.0273 24.3239V22.1038C30.0273 21.8129 29.7909 21.5765 29.5 21.5765C29.2091 21.5765 28.9727 21.8129 28.9727 22.1038V24.3239C28.9727 24.6148 29.2091 24.8513 29.5 24.8513ZM29.5 36.1487C29.2091 36.1487 28.9727 36.3852 28.9727 36.6761V38.8962C28.9727 39.1871 29.2091 39.4235 29.5 39.4235C29.7909 39.4235 30.0273 39.1871 30.0273 38.8962V36.6761C30.0273 36.3852 29.7909 36.1487 29.5 36.1487ZM29.5 41.0064C29.2091 41.0064 28.9727 41.2429 28.9727 41.5338V43.7539C28.9727 44.0448 29.2091 44.2812 29.5 44.2812C29.7909 44.2812 30.0273 44.0448 30.0273 43.7539V41.5338C30.0273 41.2429 29.7909 41.0064 29.5 41.0064ZM29.5 45.8642C29.2091 45.8642 28.9727 46.1006 28.9727 46.3915V48.6116C28.9727 48.9025 29.2091 49.139 29.5 49.139C29.7909 49.139 30.0273 48.9025 30.0273 48.6116V46.3915C30.0273 46.1006 29.7909 45.8642 29.5 45.8642ZM45.3915 29.9727C45.1006 29.9727 44.8642 30.2091 44.8642 30.5C44.8642 30.7909 45.1006 31.0273 45.3915 31.0273H47.6116C47.9025 31.0273 48.139 30.7909 48.139 30.5C48.139 30.2091 47.9025 29.9727 47.6116 29.9727H45.3915ZM40.5338 29.9727C40.2429 29.9727 40.0064 30.2091 40.0064 30.5C40.0064 30.7909 40.2429 31.0273 40.5338 31.0273H42.7539C43.0448 31.0273 43.2812 30.7909 43.2812 30.5C43.2812 30.2091 43.0448 29.9727 42.7539 29.9727H40.5338ZM35.6761 29.9727C35.3852 29.9727 35.1487 30.2091 35.1487 30.5C35.1487 30.7909 35.3852 31.0273 35.6761 31.0273H37.8962C38.1871 31.0273 38.4235 30.7909 38.4235 30.5C38.4235 30.2091 38.1871 29.9727 37.8962 29.9727H35.6761ZM21.1038 29.9727C20.8129 29.9727 20.5765 30.2091 20.5765 30.5C20.5765 30.7909 20.8129 31.0273 21.1038 31.0273H23.3239C23.6148 31.0273 23.8513 30.7909 23.8513 30.5C23.8513 30.2091 23.6148 29.9727 23.3239 29.9727H21.1038ZM16.2461 29.9727C15.9552 29.9727 15.7187 30.2091 15.7187 30.5C15.7187 30.7909 15.9552 31.0273 16.2461 31.0273H18.4662C18.7571 31.0273 18.9936 30.7909 18.9936 30.5C18.9936 30.2091 18.7571 29.9727 18.4662 29.9727H16.2461ZM11.3884 29.9727C11.0975 29.9727 10.861 30.2091 10.861 30.5C10.861 30.7909 11.0975 31.0273 11.3884 31.0273H13.6085C13.8994 31.0273 14.1358 30.7909 14.1358 30.5C14.1358 30.2091 13.8994 29.9727 13.6085 29.9727H11.3884ZM33.4709 30.5C33.4709 32.6894 31.6894 34.4709 29.5 34.4709C27.3106 34.4709 25.5291 32.6894 25.5291 30.5C25.5291 28.3106 27.3106 26.5291 29.5 26.5291C31.6894 26.5291 33.4709 28.3106 33.4709 30.5ZM32.4162 30.5C32.4162 28.8925 31.1084 27.5838 29.5 27.5838C27.8916 27.5838 26.5838 28.8916 26.5838 30.5C26.5838 32.1075 27.8916 33.4162 29.5 33.4162C31.1084 33.4162 32.4162 32.1075 32.4162 30.5ZM23.294 49.2849C23.294 50.6067 22.2191 51.6816 20.8973 51.6816C19.5754 51.6816 18.5005 50.6067 18.5005 49.2849C18.5005 48.144 19.3012 47.1878 20.3699 46.947V39.631H13.053C12.8122 40.6997 11.856 41.5004 10.7151 41.5004C9.39326 41.5004 8.31836 40.4255 8.31836 39.1036C8.31836 37.7817 9.39326 36.7068 10.7151 36.7068C11.856 36.7068 12.8122 37.5075 13.053 38.5763H20.6934C20.8357 38.5763 20.9711 38.6334 21.0704 38.7354C21.1346 38.8004 21.1987 38.8654 21.2646 38.9296C21.3666 39.0289 21.4237 39.1651 21.4237 39.3066V46.947C22.4925 47.1878 23.294 48.144 23.294 49.2849ZM12.0581 39.1036C12.0581 38.3636 11.4561 37.7615 10.716 37.7615C9.97598 37.7615 9.37305 38.3636 9.37305 39.1036C9.37305 39.8437 9.9751 40.4457 10.7151 40.4457C11.4552 40.4457 12.0581 39.8437 12.0581 39.1036ZM22.2394 49.2849C22.2394 48.5448 21.6373 47.9428 20.8973 47.9428C20.1572 47.9428 19.5552 48.5448 19.5552 49.2849C19.5552 50.0249 20.1563 50.627 20.8964 50.627C21.6364 50.627 22.2394 50.0249 22.2394 49.2849ZM35.706 11.7151C35.706 10.3933 36.7809 9.31836 38.1027 9.31836C39.4246 9.31836 40.4995 10.3933 40.4995 11.7151C40.4995 12.856 39.6988 13.8122 38.6301 14.053V21.369H45.9461C46.1869 20.3003 47.1432 19.4996 48.284 19.4996C49.6059 19.4996 50.6808 20.5745 50.6808 21.8964C50.6808 23.2183 49.6059 24.2932 48.284 24.2932C47.1432 24.2932 46.1869 23.4925 45.9461 22.4237H38.3058C38.1634 22.4237 38.028 22.3666 37.9287 22.2646C37.8646 22.1996 37.8004 22.1346 37.7345 22.0704C37.6325 21.9711 37.5754 21.8349 37.5754 21.6934V14.053C36.5075 13.8122 35.706 12.856 35.706 11.7151ZM46.9419 21.8964C46.9419 22.6364 47.5439 23.2385 48.284 23.2385C49.024 23.2385 49.6261 22.6364 49.6261 21.8964C49.6261 21.1563 49.024 20.5543 48.284 20.5543C47.5439 20.5543 46.9419 21.1563 46.9419 21.8964ZM36.7606 11.7151C36.7606 12.4552 37.3627 13.0572 38.1027 13.0572C38.8428 13.0572 39.4448 12.4552 39.4448 11.7151C39.4448 10.9751 38.8437 10.373 38.1036 10.373C37.3636 10.373 36.7606 10.9751 36.7606 11.7151ZM50.6816 39.1036C50.6816 40.4255 49.6067 41.5004 48.2849 41.5004C47.144 41.5004 46.1878 40.6997 45.947 39.631H38.631V46.947C39.6997 47.1878 40.5004 48.144 40.5004 49.2849C40.5004 50.6067 39.4255 51.6816 38.1036 51.6816C36.7817 51.6816 35.7068 50.6067 35.7068 49.2849C35.7068 48.144 36.5075 47.1878 37.5763 46.947V39.3066C37.5763 39.1643 37.6334 39.0289 37.7354 38.9296C37.8004 38.8654 37.8654 38.8013 37.9296 38.7354C38.0289 38.6343 38.1651 38.5763 38.3066 38.5763H45.947C46.1878 37.5075 47.144 36.7068 48.2849 36.7068C49.6067 36.706 50.6816 37.7817 50.6816 39.1036ZM38.1036 47.9419C37.3636 47.9419 36.7615 48.5439 36.7615 49.284C36.7615 50.024 37.3636 50.627 38.1036 50.627C38.8437 50.627 39.4457 50.0249 39.4457 49.2849C39.4457 48.5448 38.8437 47.9419 38.1036 47.9419ZM49.627 39.1036C49.627 38.3636 49.0249 37.7615 48.2849 37.7615C47.5448 37.7615 46.9428 38.3636 46.9428 39.1036C46.9428 39.8437 47.5448 40.4457 48.2849 40.4457C49.0249 40.4457 49.627 39.8437 49.627 39.1036ZM8.31836 21.8964C8.31836 20.5745 9.39326 19.4996 10.7151 19.4996C11.856 19.4996 12.8122 20.3003 13.053 21.369H20.369V14.053C19.3003 13.8122 18.4996 12.856 18.4996 11.7151C18.4996 10.3933 19.5745 9.31836 20.8964 9.31836C22.2183 9.31836 23.2932 10.3933 23.2932 11.7151C23.2932 12.856 22.4925 13.8122 21.4237 14.053V21.6934C21.4237 21.8357 21.3666 21.9711 21.2646 22.0704C21.1996 22.1346 21.1346 22.1987 21.0704 22.2646C20.9711 22.3666 20.8349 22.4237 20.6934 22.4237H13.053C12.8122 23.4925 11.856 24.2932 10.7151 24.2932C9.39326 24.294 8.31836 23.2183 8.31836 21.8964ZM20.8964 13.0581C21.6364 13.0581 22.2385 12.4561 22.2385 11.716C22.2385 10.976 21.6373 10.373 20.8964 10.373C20.1555 10.373 19.5543 10.9751 19.5543 11.7151C19.5543 12.4552 20.1563 13.0581 20.8964 13.0581ZM9.37305 21.8964C9.37305 22.6364 9.9751 23.2385 10.7151 23.2385C11.4552 23.2385 12.0572 22.6364 12.0572 21.8964C12.0572 21.1563 11.4552 20.5543 10.7151 20.5543C9.9751 20.5543 9.37305 21.1563 9.37305 21.8964Z" stroke="black" stroke-width="0.4" mask="url(#path-2-outside-1_9225_2230)"></path></svg>