<svg width="60" height="60" viewBox="0 0 60 60" fill="none" xmlns="http://www.w3.org/2000/svg"><rect x="0.525" y="0.525" width="58.95" height="58.95" rx="6.975" stroke="#210F28" stroke-width="1.05" stroke-dasharray="3 3"></rect><g clip-path="url(#clip0_9225_2155)"><path d="M38.8421 17.6147C37.5243 13.549 33.7696 10.8174 29.4986 10.8174C25.2275 10.8174 21.4729 13.5491 20.1552 17.6148C20.0901 17.8158 20.1251 18.0358 20.2493 18.2068C20.3736 18.3776 20.5722 18.4788 20.7835 18.4788H38.2137C38.6544 18.4788 38.9782 18.0347 38.8421 17.6147ZM21.744 17.1578C23.103 14.1211 26.1135 12.1382 29.4986 12.1382C32.8836 12.1382 35.8941 14.121 37.2533 17.1578H21.744Z" fill="#210F28"></path><path d="M33.7257 31.249C32.5846 31.249 31.6562 32.1774 31.6562 33.3185C31.6562 34.4596 32.5846 35.388 33.7257 35.388C34.8668 35.388 35.7952 34.4596 35.7952 33.3185C35.7952 32.1774 34.8668 31.249 33.7257 31.249ZM33.7257 34.067C33.313 34.067 32.9772 33.7312 32.9772 33.3184C32.9772 32.9056 33.3129 32.5698 33.7257 32.5698C34.1385 32.5698 34.4743 32.9056 34.4743 33.3184C34.4743 33.7312 34.1385 34.067 33.7257 34.067Z" fill="#210F28"></path><path d="M25.2746 31.249C24.1335 31.249 23.2051 32.1774 23.2051 33.3185C23.2051 34.4596 24.1335 35.388 25.2746 35.388C26.4156 35.388 27.344 34.4596 27.344 33.3185C27.344 32.1774 26.4156 31.249 25.2746 31.249ZM25.2746 34.067C24.8618 34.067 24.526 33.7312 24.526 33.3184C24.526 32.9056 24.8617 32.5698 25.2746 32.5698C25.6874 32.5698 26.0231 32.9056 26.0231 33.3184C26.0231 33.7312 25.6873 34.067 25.2746 34.067Z" fill="#210F28"></path><path d="M51.3395 29.1351H51.247C51.7178 28.5416 52 27.7921 52 26.9775C52 25.0595 50.4395 23.4991 48.5216 23.4991C46.6035 23.4991 45.0431 25.0596 45.0431 26.9775C45.0431 27.7921 45.3253 28.5416 45.7962 29.1351H45.7036C45.3388 29.1351 45.0431 29.4307 45.0431 29.7956C45.0431 30.1604 45.3388 30.4561 45.7036 30.4561H46.4522V31.2142C46.3752 31.2463 46.3031 31.2932 46.2404 31.3556C45.6545 31.9391 45.0301 32.4963 44.3849 33.0118C44.3199 33.0638 44.2678 33.1259 44.2281 33.1937L43.7297 32.5116C43.5164 32.2199 43.0927 32.1552 42.8022 32.3713C42.5916 32.5279 42.369 32.6872 42.1371 32.8478V20.6372C42.137 13.6689 36.4681 8 29.5 8C22.5319 8 16.863 13.6689 16.863 20.637V32.8207C16.6964 32.7052 16.5297 32.587 16.3643 32.4665C16.0775 32.2577 15.6771 32.3125 15.4572 32.591L14.9687 33.2094C14.1643 32.5889 13.3962 31.9235 12.6803 31.224C12.6397 31.1844 12.5949 31.1518 12.548 31.1247V30.4561H13.2966C13.6613 30.4561 13.9571 30.1604 13.9571 29.7956C13.9571 29.4307 13.6613 29.1351 13.2966 29.1351H13.204C13.6747 28.5416 13.957 27.7921 13.957 26.9775C13.957 25.0595 12.3965 23.4991 10.4785 23.4991C8.5605 23.499 7 25.0595 7 26.9775C7 27.7921 7.28222 28.5416 7.75305 29.1351H7.6605C7.29575 29.1351 7 29.4307 7 29.7956C7 30.1604 7.29575 30.4561 7.6605 30.4561H8.40906V52.3396C8.40906 52.7044 8.70481 53.0001 9.06956 53.0001H11.8876C12.2523 53.0001 12.5481 52.7044 12.5481 52.3396V32.9097C13.0627 33.3733 13.5981 33.8197 14.1501 34.246L13.7095 34.8037C13.4811 35.0928 13.5399 35.5273 13.8367 35.7452C14.2388 36.0408 14.6512 36.328 15.0626 36.599C15.6559 36.9899 16.2564 37.3544 16.8632 37.694V46.7035C16.8632 47.0683 17.1589 47.364 17.5237 47.364H41.4767C41.8415 47.364 42.1372 47.0683 42.1372 46.7035V37.7336C42.8734 37.3229 43.5986 36.8751 44.3118 36.3887C44.6199 36.1785 44.9296 35.9575 45.2582 35.7129C45.549 35.4965 45.6111 35.086 45.3971 34.7935L44.9418 34.1702C45.0365 34.149 45.1283 34.1085 45.2092 34.0438C45.6342 33.7044 46.0489 33.3463 46.4522 32.9765V52.3395C46.4522 52.7043 46.7478 53 47.1127 53H49.9307C50.2955 53 50.5912 52.7043 50.5912 52.3395V30.456H51.3398C51.7046 30.456 52.0003 30.1603 52.0003 29.7955C51.9999 29.4306 51.7043 29.1351 51.3395 29.1351ZM11.227 51.6791H9.72997V30.456H11.227V51.6791ZM10.4784 29.1351C9.28885 29.1351 8.32091 28.1672 8.32091 26.9775C8.32091 25.7878 9.28885 24.82 10.4784 24.82C11.668 24.82 12.636 25.7878 12.636 26.9775C12.636 28.1672 11.6681 29.1351 10.4784 29.1351ZM29.5 9.32091C35.518 9.32091 40.453 14.043 40.7962 19.9765H36.545C36.1802 19.9765 35.8846 20.2722 35.8846 20.637C35.8846 21.0018 36.1802 21.2975 36.545 21.2975H40.8161V33.7001C38.185 35.2775 34.573 36.7544 30.1605 36.8847V21.2974H34.1673C34.5322 21.2974 34.8278 21.0017 34.8278 20.6369C34.8278 20.2721 34.5322 19.9764 34.1673 19.9764H18.2038C18.547 14.043 23.482 9.32091 29.5 9.32091ZM18.184 21.2974H28.8396V36.8835C25.1034 36.7677 21.5268 35.6913 18.184 33.6747V21.2974ZM28.8395 46.043H18.184V38.3875C21.5619 40.0462 25.131 40.9303 28.8396 41.0242L28.8395 46.043ZM40.816 46.043H30.1605V41.0249C30.195 41.024 30.2297 41.0237 30.2641 41.0227C33.961 40.9162 37.4956 40.0434 40.816 38.4237V46.043ZM43.5673 35.2974C39.4839 38.0829 34.9953 39.5649 30.2261 39.7023C29.9843 39.7093 29.7403 39.7128 29.5013 39.7128C24.6494 39.7128 20.036 38.2941 15.7891 35.4961C15.5841 35.3611 15.379 35.2218 15.1749 35.0795L16.1047 33.9025C16.2743 34.0201 16.4441 34.1349 16.6128 34.246C20.8088 37.0105 25.3744 38.342 30.183 38.206C35.8192 38.0435 40.2161 35.8162 43.0508 33.8217L43.94 35.0384C43.8145 35.1272 43.6907 35.2132 43.5673 35.2974ZM49.27 51.6791H47.773V30.456H49.27V51.6791ZM48.5216 29.1351C47.3319 29.1351 46.364 28.1672 46.364 26.9775C46.364 25.7878 47.3318 24.82 48.5216 24.82C49.7112 24.82 50.6791 25.7878 50.6791 26.9775C50.6791 28.1672 49.7112 29.1351 48.5216 29.1351Z" fill="#210F28"></path></g><defs><clipPath id="clip0_9225_2155"><rect width="45" height="45" fill="white" transform="translate(7 8)"></rect></clipPath></defs></svg>