<svg width="60" height="60" viewBox="0 0 60 60" fill="none" xmlns="http://www.w3.org/2000/svg"><rect x="0.525" y="0.525" width="58.95" height="58.95" rx="6.975" stroke="#210F28" stroke-width="1.05" stroke-dasharray="3 3"></rect><path d="M9.78567 42.7215C9.63098 42.7215 9.47629 42.6723 9.34973 42.5668C9.04739 42.3277 8.99817 41.8848 9.23723 41.5754L16.9997 31.823C17.5482 31.1762 18.3216 30.8105 19.1372 30.8105C20.3466 30.8105 21.4294 31.6121 21.781 32.7652C21.8935 33.1379 21.6825 33.5316 21.3099 33.6441C20.9372 33.7566 20.5435 33.5457 20.431 33.173C20.2622 32.6105 19.7279 32.2168 19.1372 32.2168C18.7364 32.2168 18.3497 32.3996 18.0825 32.716L10.3341 42.4543C10.2005 42.6301 9.98957 42.7215 9.78567 42.7215Z" fill="#210F28"></path><path d="M45.3605 48.7047H12.6371C10.2254 48.7047 8.26367 46.743 8.26367 44.3242C8.26367 43.3328 8.6082 42.3625 9.22695 41.582C9.23398 41.575 9.26914 41.5258 9.27617 41.5188C10.127 40.5203 11.3504 39.9508 12.6371 39.9508C13.4316 39.9508 14.2191 40.1688 14.8941 40.5766C15.2105 40.7664 15.4988 40.9984 15.759 41.2586L20.484 32.6313C20.6105 32.4063 20.8426 32.2656 21.1027 32.2656H24.8926C25.2793 32.2656 25.5957 32.582 25.5957 32.9688C25.5957 33.3555 25.2793 33.6719 24.8926 33.6719H21.5176L16.4691 42.8828C16.3426 43.1078 16.1105 43.2484 15.8504 43.2484C15.5973 43.2484 15.3582 43.1078 15.2316 42.8828C14.9855 42.4258 14.6129 42.0461 14.1629 41.7719C12.9676 41.0547 11.3082 41.3078 10.359 42.3906C10.3449 42.4117 10.3238 42.4398 10.3168 42.4469C9.89492 42.9813 9.66289 43.6422 9.66289 44.3102C9.66289 45.9484 10.9918 47.2844 12.6301 47.2844H45.3465C46.9848 47.2844 48.3137 45.9484 48.3137 44.3102C48.3137 43.6352 48.0816 42.9742 47.6598 42.4469C47.6527 42.4398 47.6316 42.4117 47.6176 42.3906C47.041 41.7297 46.2113 41.35 45.3465 41.35C44.2566 41.35 43.2652 41.9336 42.7449 42.8828C42.6184 43.1078 42.3863 43.2484 42.1262 43.2484C41.866 43.2484 41.634 43.1078 41.5074 42.8828L36.466 33.6719H33.091C32.7043 33.6719 32.3879 33.3555 32.3879 32.9688C32.3879 32.582 32.7043 32.2656 33.091 32.2656H36.8809C37.141 32.2656 37.373 32.4063 37.4996 32.6313L42.2176 41.2516C43.0262 40.4289 44.1441 39.9438 45.3395 39.9438C46.6262 39.9438 47.8566 40.5133 48.7004 41.5117C48.7215 41.5328 48.7355 41.5539 48.7496 41.582C49.3684 42.3555 49.7059 43.3328 49.7059 44.3242C49.734 46.7359 47.7723 48.7047 45.3605 48.7047Z" fill="#210F28"></path><path d="M48.215 42.7215C48.0111 42.7215 47.8002 42.6301 47.6666 42.4543L39.9041 32.702C39.651 32.3996 39.2642 32.2168 38.8635 32.2168C38.2728 32.2168 37.7385 32.6105 37.5697 33.173C37.4572 33.5457 37.0635 33.7566 36.6908 33.6441C36.3181 33.5316 36.1072 33.1379 36.2197 32.7652C36.5642 31.6121 37.6541 30.8105 38.8635 30.8105C39.6791 30.8105 40.4596 31.1762 40.9869 31.809L48.7635 41.5754C49.0025 41.8777 48.9533 42.3207 48.651 42.5668C48.5244 42.6723 48.3697 42.7215 48.215 42.7215Z" fill="#210F28"></path><path d="M29.0016 39.1699C28.7977 39.1699 28.6008 39.0785 28.4672 38.9238C28.1156 38.516 19.8398 28.8621 19.8398 22.4566C19.8398 17.4012 23.9531 13.2949 29.0016 13.2949C34.05 13.2949 38.1633 17.4082 38.1633 22.4566C38.1633 28.8691 29.8875 38.516 29.5359 38.9238C29.4023 39.0785 29.2055 39.1699 29.0016 39.1699ZM29.0016 14.7012C24.7266 14.7012 21.2461 18.1816 21.2461 22.4566C21.2461 27.4629 27.1734 35.1199 29.0016 37.3629C30.8297 35.1129 36.757 27.4559 36.757 22.4566C36.757 18.1816 33.2766 14.7012 29.0016 14.7012Z" fill="#210F28"></path><path d="M28.9996 27.5275C26.159 27.5275 23.8457 25.2143 23.8457 22.3736C23.8457 19.533 26.159 17.2197 28.9996 17.2197C31.8402 17.2197 34.1535 19.533 34.1535 22.3736C34.1535 25.2143 31.8402 27.5275 28.9996 27.5275ZM28.9996 18.633C26.9324 18.633 25.252 20.3135 25.252 22.3807C25.252 24.4479 26.9324 26.1283 28.9996 26.1283C31.0668 26.1283 32.7473 24.4479 32.7473 22.3807C32.7473 20.3135 31.0668 18.633 28.9996 18.633Z" fill="#210F28"></path><path d="M23.6699 48.7039C23.4168 48.7039 23.1707 48.5633 23.0441 48.3243C22.8683 47.9797 23.0019 47.5578 23.3465 47.375L33.2324 42.2282L30.3496 36.2797C30.1808 35.9282 30.3285 35.5063 30.673 35.3375C31.0246 35.1688 31.4465 35.3164 31.6152 35.661L34.7933 42.2211C34.9621 42.5657 34.8215 42.9735 34.484 43.1493L23.9933 48.6125C23.8949 48.6758 23.7824 48.7039 23.6699 48.7039Z" fill="#210F28"></path><path d="M30.0458 45.3783C29.9193 45.3783 29.7927 45.3431 29.6802 45.2728L18.2052 38.1783C17.8748 37.9744 17.7693 37.5384 17.9802 37.208C18.1841 36.8775 18.6201 36.7791 18.9505 36.983L30.4185 44.0775C30.749 44.2814 30.8544 44.7173 30.6435 45.0478C30.5169 45.2658 30.2849 45.3783 30.0458 45.3783Z" fill="#210F28"></path><path d="M32.8869 40.6183C32.5634 40.6183 32.2681 40.3863 32.1978 40.0558C32.1205 39.6761 32.3666 39.3035 32.7462 39.2261L39.7634 37.7847C40.1431 37.7074 40.5158 37.9535 40.5931 38.3332C40.6705 38.7128 40.4244 39.0855 40.0447 39.1628L33.0275 40.6043C32.9853 40.6113 32.9361 40.6183 32.8869 40.6183Z" fill="#210F28"></path></svg>