<svg width="60" height="60" viewBox="0 0 60 60" fill="none" xmlns="http://www.w3.org/2000/svg"><rect x="0.525" y="0.525" width="58.95" height="58.95" rx="6.975" stroke="#210F28" stroke-width="1.05" stroke-dasharray="3 3"></rect><g clip-path="url(#clip0_9225_2205)"><path d="M48.5938 14.7291C42.0456 14.7291 33.43 12.5194 30.3589 8.42567C29.9504 7.9282 29.216 7.85645 28.7185 8.265C28.6598 8.31306 28.6059 8.36696 28.5579 8.42567C25.4865 12.5191 16.8709 14.7291 10.323 14.7291C9.70126 14.7291 9.19727 15.2331 9.19727 15.8548V30.4875C9.19727 42.865 19.9456 50.3267 29.1494 52.9559C29.3513 53.0146 29.5655 53.0146 29.7674 52.9559C38.9712 50.3267 49.7195 42.865 49.7195 30.4875V15.8548C49.7195 15.2331 49.2156 14.7291 48.5938 14.7291ZM47.468 30.4875C47.468 41.4756 37.8389 48.2115 29.4584 50.7027C21.0779 48.2115 11.4484 41.4756 11.4484 30.4875V16.9607C17.9547 16.7406 25.6486 14.6432 29.4584 10.8114C33.2686 14.6432 40.9621 16.7406 47.4684 16.9603V30.4875H47.468Z" fill="#210F28"></path><path d="M24.9546 25.9857V28.2369H23.8289C23.2071 28.2369 22.7031 28.7409 22.7031 29.3626V38.3673C22.7031 38.989 23.2071 39.493 23.8289 39.493H35.085C35.7068 39.493 36.2108 38.989 36.2108 38.3673V29.3626C36.2108 28.7409 35.7068 28.2369 35.085 28.2369H33.9593V25.9857C33.9593 23.499 31.9436 21.4834 29.457 21.4834C26.9703 21.4834 24.9546 23.499 24.9546 25.9857ZM33.9593 37.2419H24.9546V30.488H33.9593V37.2419ZM31.7081 25.9857V28.2369H27.2058V25.9857C27.2058 24.7426 28.2134 23.7346 29.457 23.7346C30.7001 23.7346 31.7081 24.7426 31.7081 25.9857Z" fill="#210F28"></path></g><defs><clipPath id="clip0_9225_2205"><rect width="45" height="45" fill="white" transform="translate(7 8)"></rect></clipPath></defs></svg>