<svg width="60" height="60" viewBox="0 0 60 60" fill="none" xmlns="http://www.w3.org/2000/svg"><rect x="0.525" y="0.525" width="58.95" height="58.95" rx="6.975" stroke="#210F28" stroke-width="1.05" stroke-dasharray="3 3"></rect><g clip-path="url(#clip0_9225_2130)"><mask id="mask0_9225_2130" maskUnits="userSpaceOnUse" x="7" y="7" width="45" height="45" style="mask-type: luminance;"><path d="M7 7H52V52H7V7Z" fill="white"></path></mask><g mask="url(#mask0_9225_2130)"><path d="M19.6562 18.25H21.0625V19.6562H19.6562V18.25Z" fill="#210F28"></path><path d="M19.6562 40.75H21.0625V42.1562H19.6562V40.75Z" fill="#210F28"></path><path d="M19.6562 26.6875H21.0625V28.0938H19.6562V26.6875Z" fill="#210F28"></path><path d="M19.6562 43.5625H21.0625V44.9688H19.6562V43.5625Z" fill="#210F28"></path><path d="M19.6562 23.875H21.0625V25.2812H19.6562V23.875Z" fill="#210F28"></path><path d="M19.6562 21.0625H21.0625V22.4688H19.6562V21.0625Z" fill="#210F28"></path><path d="M19.6562 29.5H21.0625V30.9062H19.6562V29.5Z" fill="#210F28"></path><path d="M19.6562 46.375H21.0625V47.7812H19.6562V46.375Z" fill="#210F28"></path><path d="M19.6562 35.125H21.0625V36.5312H19.6562V35.125Z" fill="#210F28"></path><path d="M19.6562 32.3125H21.0625V33.7188H19.6562V32.3125Z" fill="#210F28"></path><path d="M19.6562 37.9375H21.0625V39.3438H19.6562V37.9375Z" fill="#210F28"></path><path d="M22.4688 23.875H23.875V25.2812H22.4688V23.875Z" fill="#210F28"></path><path d="M22.4688 26.6875H23.875V28.0938H22.4688V26.6875Z" fill="#210F28"></path><path d="M22.4688 18.25H23.875V19.6562H22.4688V18.25Z" fill="#210F28"></path><path d="M22.4688 29.5H23.875V30.9062H22.4688V29.5Z" fill="#210F28"></path><path d="M22.4688 21.0625H23.875V22.4688H22.4688V21.0625Z" fill="#210F28"></path><path d="M22.4688 46.375H23.875V47.7812H22.4688V46.375Z" fill="#210F28"></path><path d="M22.4688 43.5625H23.875V44.9688H22.4688V43.5625Z" fill="#210F28"></path><path d="M22.4688 37.9375H23.875V39.3438H22.4688V37.9375Z" fill="#210F28"></path><path d="M22.4688 40.75H23.875V42.1562H22.4688V40.75Z" fill="#210F28"></path><path d="M22.4688 32.3125H23.875V33.7188H22.4688V32.3125Z" fill="#210F28"></path><path d="M22.4688 35.125H23.875V36.5312H22.4688V35.125Z" fill="#210F28"></path><path d="M28.0938 12.625H29.5V14.0312H28.0938V12.625Z" fill="#210F28"></path><path d="M28.0938 18.25H29.5V19.6562H28.0938V18.25Z" fill="#210F28"></path><path d="M28.0938 15.4375H29.5V16.8438H28.0938V15.4375Z" fill="#210F28"></path><path d="M28.0938 23.875H29.5V25.2812H28.0938V23.875Z" fill="#210F28"></path><path d="M28.0938 26.6875H29.5V28.0938H28.0938V26.6875Z" fill="#210F28"></path><path d="M28.0938 21.0625H29.5V22.4688H28.0938V21.0625Z" fill="#210F28"></path><path d="M28.0938 29.5H29.5V30.9062H28.0938V29.5Z" fill="#210F28"></path><path d="M28.0938 37.9375H29.5V39.3438H28.0938V37.9375Z" fill="#210F28"></path><path d="M28.0938 35.125H29.5V36.5312H28.0938V35.125Z" fill="#210F28"></path><path d="M28.0938 40.75H29.5V42.1562H28.0938V40.75Z" fill="#210F28"></path><path d="M28.0938 43.5625H29.5V44.9688H28.0938V43.5625Z" fill="#210F28"></path><path d="M28.0938 9.8125H29.5V11.2188H28.0938V9.8125Z" fill="#210F28"></path><path d="M28.0938 32.3125H29.5V33.7188H28.0938V32.3125Z" fill="#210F28"></path><path d="M36.5312 35.125H37.9375V36.5312H36.5312V35.125Z" fill="#210F28"></path><path d="M36.5312 29.5H37.9375V30.9062H36.5312V29.5Z" fill="#210F28"></path><path d="M36.5312 23.875H37.9375V25.2812H36.5312V23.875Z" fill="#210F28"></path><path d="M36.5312 18.25H37.9375V19.6562H36.5312V18.25Z" fill="#210F28"></path><path d="M36.5312 32.3125H37.9375V33.7188H36.5312V32.3125Z" fill="#210F28"></path><path d="M36.5312 21.0625H37.9375V22.4688H36.5312V21.0625Z" fill="#210F28"></path><path d="M36.5312 26.6875H37.9375V28.0938H36.5312V26.6875Z" fill="#210F28"></path><path d="M36.5312 46.375H37.9375V47.7812H36.5312V46.375Z" fill="#210F28"></path><path d="M36.5312 43.5625H37.9375V44.9688H36.5312V43.5625Z" fill="#210F28"></path><path d="M36.5312 40.75H37.9375V42.1562H36.5312V40.75Z" fill="#210F28"></path><path d="M36.5312 37.9375H37.9375V39.3438H36.5312V37.9375Z" fill="#210F28"></path><path d="M39.3438 46.375H40.75V47.7812H39.3438V46.375Z" fill="#210F28"></path><path d="M39.3438 18.25H40.75V19.6562H39.3438V18.25Z" fill="#210F28"></path><path d="M39.3438 43.5625H40.75V44.9688H39.3438V43.5625Z" fill="#210F28"></path><path d="M39.3438 21.0625H40.75V22.4688H39.3438V21.0625Z" fill="#210F28"></path><path d="M39.3438 40.75H40.75V42.1562H39.3438V40.75Z" fill="#210F28"></path><path d="M39.3438 37.9375H40.75V39.3438H39.3438V37.9375Z" fill="#210F28"></path><path d="M39.3438 35.125H40.75V36.5312H39.3438V35.125Z" fill="#210F28"></path><path d="M39.3438 23.875H40.75V25.2812H39.3438V23.875Z" fill="#210F28"></path><path d="M39.3438 29.5H40.75V30.9062H39.3438V29.5Z" fill="#210F28"></path><path d="M39.3438 26.6875H40.75V28.0938H39.3438V26.6875Z" fill="#210F28"></path><path d="M39.3438 32.3125H40.75V33.7188H39.3438V32.3125Z" fill="#210F28"></path><path d="M30.9062 15.4375H32.3125V16.8438H30.9062V15.4375Z" fill="#210F28"></path><path d="M30.9062 18.25H32.3125V19.6562H30.9062V18.25Z" fill="#210F28"></path><path d="M30.9062 9.8125H32.3125V11.2188H30.9062V9.8125Z" fill="#210F28"></path><path d="M30.9062 12.625H32.3125V14.0312H30.9062V12.625Z" fill="#210F28"></path><path d="M30.9062 37.9375H32.3125V39.3438H30.9062V37.9375Z" fill="#210F28"></path><path d="M30.9062 32.3125H32.3125V33.7188H30.9062V32.3125Z" fill="#210F28"></path><path d="M30.9062 26.6875H32.3125V28.0938H30.9062V26.6875Z" fill="#210F28"></path><path d="M30.9062 40.75H32.3125V42.1562H30.9062V40.75Z" fill="#210F28"></path><path d="M30.9062 29.5H32.3125V30.9062H30.9062V29.5Z" fill="#210F28"></path><path d="M30.9062 21.0625H32.3125V22.4688H30.9062V21.0625Z" fill="#210F28"></path><path d="M30.9062 35.125H32.3125V36.5312H30.9062V35.125Z" fill="#210F28"></path><path d="M30.9062 23.875H32.3125V25.2812H30.9062V23.875Z" fill="#210F28"></path><path d="M30.9062 43.5625H32.3125V44.9688H30.9062V43.5625Z" fill="#210F28"></path><path d="M25.2812 9.8125H26.6875V11.2188H25.2812V9.8125Z" fill="#210F28"></path><path d="M33.7188 9.8125H35.125V11.2188H33.7188V9.8125Z" fill="#210F28"></path><path d="M18.25 52H25.2812H26.6875H33.7188H35.125H42.1562H43.5625H52V50.5938H43.5625V14.0312H39.3438V7H21.0625V14.0312H16.8438V50.5938H7V52H16.8438H18.25ZM29.5 50.5938V47.7812H30.9062V50.5938H29.5ZM42.1562 15.4375V50.5938H35.125V15.4375H42.1562ZM22.4688 8.40625H37.9375V14.0312H33.7188V50.5938H32.3125V46.375H28.0938V50.5938H26.6875V14.0312H22.4688V8.40625ZM18.25 15.4375H25.2812V50.5938H18.25V15.4375Z" fill="#210F28"></path></g></g><defs><clipPath id="clip0_9225_2130"><rect width="45" height="45" fill="white" transform="translate(7 7)"></rect></clipPath></defs></svg>