<svg width="60" height="60" viewBox="0 0 60 60" fill="none" xmlns="http://www.w3.org/2000/svg"><rect x="0.525" y="0.525" width="58.95" height="58.95" rx="6.975" stroke="#210F28" stroke-width="1.05" stroke-dasharray="3 3"></rect><mask id="path-2-outside-1_9225_2280" maskUnits="userSpaceOnUse" x="7.31836" y="11.0361" width="44" height="39" fill="black"><rect fill="white" x="7.31836" y="11.0361" width="44" height="39"></rect><path d="M27.3145 18.8661C27.5202 19.0718 27.8542 19.0718 28.0598 18.8661C30.3802 16.5467 33.4642 15.2687 36.7452 15.2687C40.0262 15.2687 43.1102 16.5467 45.4305 18.8661C45.5334 18.9689 45.6687 19.0208 45.8032 19.0208C45.9377 19.0208 46.073 18.9689 46.1759 18.8661L47.7157 17.3263C47.9214 17.1206 47.9214 16.7866 47.7157 16.581C44.7854 13.6507 40.8892 12.0361 36.7443 12.0361C32.5994 12.0361 28.7041 13.6498 25.7729 16.5801C25.6736 16.6794 25.6182 16.813 25.6182 16.9527C25.6182 17.0925 25.6736 17.227 25.7729 17.3254L27.3145 18.8661ZM36.7452 13.0908C40.4313 13.0908 43.9074 14.461 46.5907 16.9598L45.7953 17.7552C43.3256 15.4674 40.1316 14.2141 36.7452 14.2141C33.3588 14.2141 30.1657 15.4674 27.6942 17.7552L26.8988 16.9598C29.5839 14.461 33.0591 13.0908 36.7452 13.0908ZM36.7452 25.1046C35.3961 25.1046 34.2992 26.2023 34.2992 27.5506C34.2992 28.8997 35.397 29.9966 36.7452 29.9966C38.0943 29.9966 39.1912 28.8988 39.1912 27.5506C39.1921 26.2023 38.0943 25.1046 36.7452 25.1046ZM36.7452 28.9428C35.9779 28.9428 35.3539 28.3187 35.3539 27.5515C35.3539 26.7842 35.9779 26.1602 36.7452 26.1602C37.5125 26.1602 38.1365 26.7842 38.1365 27.5515C38.1365 28.3187 37.5125 28.9428 36.7452 28.9428ZM50.5554 35.423L40.9244 24.1176L41.5554 23.4865C41.7611 23.2809 41.7611 22.9469 41.5554 22.7412C40.2705 21.4563 38.5628 20.7487 36.7452 20.7487C35.3258 20.7487 33.9731 21.182 32.8367 21.9836H31.0947C31.1096 21.9713 31.1263 21.9607 31.1404 21.9467C32.6372 20.4499 34.6279 19.6255 36.7452 19.6255C38.8625 19.6255 40.8523 20.4499 42.35 21.9467C42.4528 22.0495 42.5882 22.1014 42.7226 22.1014C42.8571 22.1014 42.9925 22.0495 43.0953 21.9467L44.6351 20.4068C44.8408 20.2012 44.8408 19.8672 44.6351 19.6615C42.5275 17.5539 39.7256 16.3929 36.7443 16.3929C33.7631 16.3929 30.9611 17.5539 28.8535 19.6615C28.6478 19.8672 28.6478 20.2012 28.8535 20.4068L30.3933 21.9467C30.4074 21.9607 30.4232 21.9713 30.439 21.9836H20.1356C19.9809 21.9836 19.8342 22.0513 19.734 22.169L11.6656 31.641H11.5619V31.7632L8.44441 35.423C8.25545 35.6444 8.28182 35.9775 8.50418 36.1665C8.72566 36.3555 9.05877 36.3291 9.24773 36.1067L11.5628 33.3892V48.4369C11.5628 48.7278 11.7992 48.9643 12.0901 48.9643H28.4536H47.1804C47.4714 48.9643 47.7078 48.7278 47.7078 48.4369V36.2922H50.1538C50.3595 36.2922 50.5467 36.1727 50.6328 35.9863C50.7189 35.7991 50.6882 35.5794 50.5554 35.423ZM29.9829 20.043C31.8418 18.3651 34.2227 17.4467 36.7452 17.4467C39.2677 17.4467 41.6486 18.3651 43.5075 20.043L42.7121 20.8384C41.0668 19.3715 38.9679 18.5699 36.7452 18.5699C34.5224 18.5699 32.4236 19.3715 30.7783 20.8384L29.9829 20.043ZM36.7452 21.8034C38.1031 21.8034 39.3898 22.271 40.4199 23.1306L39.6219 23.9295C38.8071 23.28 37.8034 22.9267 36.7452 22.9267C35.687 22.9267 34.6842 23.2791 33.8685 23.9295L33.0696 23.1306C34.1006 22.271 35.3873 21.8034 36.7452 21.8034ZM23.3533 47.9096H16.9188V38.464C16.9188 36.7035 18.3506 35.2718 20.111 35.2718H20.1611C21.9216 35.2718 23.3533 36.7035 23.3533 38.464V47.9096ZM24.408 47.9096V38.464C24.408 36.1226 22.5025 34.2171 20.1611 34.2171H20.111C17.7696 34.2171 15.8641 36.1226 15.8641 38.464V47.9096H12.6166V32.1508L20.1365 23.3239L27.9254 32.4672V47.9096H24.408ZM37.6215 39.69C37.2673 39.69 36.9799 39.4018 36.9799 39.0476C36.9799 38.6934 37.2681 38.4051 37.6215 38.4051C37.9748 38.4051 38.2639 38.6934 38.2639 39.0476C38.2639 39.4018 37.9757 39.69 37.6215 39.69ZM46.6522 47.9096H40.5614V43.4983L42.1962 43.0606C42.4994 43.5238 43.0223 43.8314 43.6156 43.8314C44.5516 43.8314 45.3128 43.0703 45.3128 42.1343C45.3128 41.1982 44.5516 40.4371 43.6156 40.4371C42.7112 40.4371 41.972 41.149 41.9237 42.0411L39.897 42.5843C39.6667 42.6458 39.5058 42.855 39.5058 43.094V47.9104H38.1479V40.6604C38.8256 40.438 39.3178 39.7999 39.3178 39.0484C39.3178 38.1124 38.5566 37.3513 37.6206 37.3513C36.6854 37.3513 35.9243 38.1124 35.9243 39.0484C35.9243 39.7999 36.4156 40.438 37.0932 40.6604V47.9104H35.7353V43.7146C35.7353 43.4772 35.5762 43.2689 35.3469 43.2057L33.7068 42.7565C33.6629 41.8592 32.922 41.1429 32.014 41.1429C31.078 41.1429 30.3169 41.904 30.3169 42.84C30.3169 43.7752 31.078 44.5363 32.014 44.5363C32.6047 44.5363 33.125 44.2331 33.4291 43.7743L34.6806 44.1171V47.9113H28.9783V33.7056L31.0235 36.1067C31.1281 36.2289 31.2758 36.2922 31.4252 36.2922H46.6505V47.9096H46.6522ZM42.974 42.1334C42.974 41.7792 43.2623 41.4909 43.6165 41.4909C43.9707 41.4909 44.259 41.7792 44.259 42.1334C44.259 42.4876 43.9707 42.7759 43.6165 42.7759C43.2623 42.7759 42.974 42.4876 42.974 42.1334ZM32.6574 42.8383C32.6574 43.1925 32.3691 43.4799 32.0149 43.4799C31.6607 43.4799 31.3724 43.1916 31.3724 42.8383C31.3724 42.485 31.6607 42.1958 32.0149 42.1958C32.3691 42.1958 32.6574 42.485 32.6574 42.8383ZM31.6704 35.2375L21.2782 23.0383H31.7882C31.7653 23.1974 31.8128 23.3644 31.9358 23.4865L33.4757 25.0264C33.5741 25.1257 33.7086 25.1811 33.8483 25.1811C33.9881 25.1811 34.1225 25.1257 34.221 25.0264C34.8951 24.3522 35.7916 23.9805 36.7452 23.9805C37.6988 23.9805 38.5953 24.3514 39.2694 25.0264C39.3679 25.1257 39.5023 25.1811 39.6421 25.1811C39.7818 25.1811 39.9163 25.1257 40.0147 25.0264L40.1756 24.8655L49.0112 35.2366H31.6704V35.2375Z"></path></mask><path d="M27.3145 18.8661C27.5202 19.0718 27.8542 19.0718 28.0598 18.8661C30.3802 16.5467 33.4642 15.2687 36.7452 15.2687C40.0262 15.2687 43.1102 16.5467 45.4305 18.8661C45.5334 18.9689 45.6687 19.0208 45.8032 19.0208C45.9377 19.0208 46.073 18.9689 46.1759 18.8661L47.7157 17.3263C47.9214 17.1206 47.9214 16.7866 47.7157 16.581C44.7854 13.6507 40.8892 12.0361 36.7443 12.0361C32.5994 12.0361 28.7041 13.6498 25.7729 16.5801C25.6736 16.6794 25.6182 16.813 25.6182 16.9527C25.6182 17.0925 25.6736 17.227 25.7729 17.3254L27.3145 18.8661ZM36.7452 13.0908C40.4313 13.0908 43.9074 14.461 46.5907 16.9598L45.7953 17.7552C43.3256 15.4674 40.1316 14.2141 36.7452 14.2141C33.3588 14.2141 30.1657 15.4674 27.6942 17.7552L26.8988 16.9598C29.5839 14.461 33.0591 13.0908 36.7452 13.0908ZM36.7452 25.1046C35.3961 25.1046 34.2992 26.2023 34.2992 27.5506C34.2992 28.8997 35.397 29.9966 36.7452 29.9966C38.0943 29.9966 39.1912 28.8988 39.1912 27.5506C39.1921 26.2023 38.0943 25.1046 36.7452 25.1046ZM36.7452 28.9428C35.9779 28.9428 35.3539 28.3187 35.3539 27.5515C35.3539 26.7842 35.9779 26.1602 36.7452 26.1602C37.5125 26.1602 38.1365 26.7842 38.1365 27.5515C38.1365 28.3187 37.5125 28.9428 36.7452 28.9428ZM50.5554 35.423L40.9244 24.1176L41.5554 23.4865C41.7611 23.2809 41.7611 22.9469 41.5554 22.7412C40.2705 21.4563 38.5628 20.7487 36.7452 20.7487C35.3258 20.7487 33.9731 21.182 32.8367 21.9836H31.0947C31.1096 21.9713 31.1263 21.9607 31.1404 21.9467C32.6372 20.4499 34.6279 19.6255 36.7452 19.6255C38.8625 19.6255 40.8523 20.4499 42.35 21.9467C42.4528 22.0495 42.5882 22.1014 42.7226 22.1014C42.8571 22.1014 42.9925 22.0495 43.0953 21.9467L44.6351 20.4068C44.8408 20.2012 44.8408 19.8672 44.6351 19.6615C42.5275 17.5539 39.7256 16.3929 36.7443 16.3929C33.7631 16.3929 30.9611 17.5539 28.8535 19.6615C28.6478 19.8672 28.6478 20.2012 28.8535 20.4068L30.3933 21.9467C30.4074 21.9607 30.4232 21.9713 30.439 21.9836H20.1356C19.9809 21.9836 19.8342 22.0513 19.734 22.169L11.6656 31.641H11.5619V31.7632L8.44441 35.423C8.25545 35.6444 8.28182 35.9775 8.50418 36.1665C8.72566 36.3555 9.05877 36.3291 9.24773 36.1067L11.5628 33.3892V48.4369C11.5628 48.7278 11.7992 48.9643 12.0901 48.9643H28.4536H47.1804C47.4714 48.9643 47.7078 48.7278 47.7078 48.4369V36.2922H50.1538C50.3595 36.2922 50.5467 36.1727 50.6328 35.9863C50.7189 35.7991 50.6882 35.5794 50.5554 35.423ZM29.9829 20.043C31.8418 18.3651 34.2227 17.4467 36.7452 17.4467C39.2677 17.4467 41.6486 18.3651 43.5075 20.043L42.7121 20.8384C41.0668 19.3715 38.9679 18.5699 36.7452 18.5699C34.5224 18.5699 32.4236 19.3715 30.7783 20.8384L29.9829 20.043ZM36.7452 21.8034C38.1031 21.8034 39.3898 22.271 40.4199 23.1306L39.6219 23.9295C38.8071 23.28 37.8034 22.9267 36.7452 22.9267C35.687 22.9267 34.6842 23.2791 33.8685 23.9295L33.0696 23.1306C34.1006 22.271 35.3873 21.8034 36.7452 21.8034ZM23.3533 47.9096H16.9188V38.464C16.9188 36.7035 18.3506 35.2718 20.111 35.2718H20.1611C21.9216 35.2718 23.3533 36.7035 23.3533 38.464V47.9096ZM24.408 47.9096V38.464C24.408 36.1226 22.5025 34.2171 20.1611 34.2171H20.111C17.7696 34.2171 15.8641 36.1226 15.8641 38.464V47.9096H12.6166V32.1508L20.1365 23.3239L27.9254 32.4672V47.9096H24.408ZM37.6215 39.69C37.2673 39.69 36.9799 39.4018 36.9799 39.0476C36.9799 38.6934 37.2681 38.4051 37.6215 38.4051C37.9748 38.4051 38.2639 38.6934 38.2639 39.0476C38.2639 39.4018 37.9757 39.69 37.6215 39.69ZM46.6522 47.9096H40.5614V43.4983L42.1962 43.0606C42.4994 43.5238 43.0223 43.8314 43.6156 43.8314C44.5516 43.8314 45.3128 43.0703 45.3128 42.1343C45.3128 41.1982 44.5516 40.4371 43.6156 40.4371C42.7112 40.4371 41.972 41.149 41.9237 42.0411L39.897 42.5843C39.6667 42.6458 39.5058 42.855 39.5058 43.094V47.9104H38.1479V40.6604C38.8256 40.438 39.3178 39.7999 39.3178 39.0484C39.3178 38.1124 38.5566 37.3513 37.6206 37.3513C36.6854 37.3513 35.9243 38.1124 35.9243 39.0484C35.9243 39.7999 36.4156 40.438 37.0932 40.6604V47.9104H35.7353V43.7146C35.7353 43.4772 35.5762 43.2689 35.3469 43.2057L33.7068 42.7565C33.6629 41.8592 32.922 41.1429 32.014 41.1429C31.078 41.1429 30.3169 41.904 30.3169 42.84C30.3169 43.7752 31.078 44.5363 32.014 44.5363C32.6047 44.5363 33.125 44.2331 33.4291 43.7743L34.6806 44.1171V47.9113H28.9783V33.7056L31.0235 36.1067C31.1281 36.2289 31.2758 36.2922 31.4252 36.2922H46.6505V47.9096H46.6522ZM42.974 42.1334C42.974 41.7792 43.2623 41.4909 43.6165 41.4909C43.9707 41.4909 44.259 41.7792 44.259 42.1334C44.259 42.4876 43.9707 42.7759 43.6165 42.7759C43.2623 42.7759 42.974 42.4876 42.974 42.1334ZM32.6574 42.8383C32.6574 43.1925 32.3691 43.4799 32.0149 43.4799C31.6607 43.4799 31.3724 43.1916 31.3724 42.8383C31.3724 42.485 31.6607 42.1958 32.0149 42.1958C32.3691 42.1958 32.6574 42.485 32.6574 42.8383ZM31.6704 35.2375L21.2782 23.0383H31.7882C31.7653 23.1974 31.8128 23.3644 31.9358 23.4865L33.4757 25.0264C33.5741 25.1257 33.7086 25.1811 33.8483 25.1811C33.9881 25.1811 34.1225 25.1257 34.221 25.0264C34.8951 24.3522 35.7916 23.9805 36.7452 23.9805C37.6988 23.9805 38.5953 24.3514 39.2694 25.0264C39.3679 25.1257 39.5023 25.1811 39.6421 25.1811C39.7818 25.1811 39.9163 25.1257 40.0147 25.0264L40.1756 24.8655L49.0112 35.2366H31.6704V35.2375Z" fill="#210F28"></path><path d="M27.3145 18.8661C27.5202 19.0718 27.8542 19.0718 28.0598 18.8661C30.3802 16.5467 33.4642 15.2687 36.7452 15.2687C40.0262 15.2687 43.1102 16.5467 45.4305 18.8661C45.5334 18.9689 45.6687 19.0208 45.8032 19.0208C45.9377 19.0208 46.073 18.9689 46.1759 18.8661L47.7157 17.3263C47.9214 17.1206 47.9214 16.7866 47.7157 16.581C44.7854 13.6507 40.8892 12.0361 36.7443 12.0361C32.5994 12.0361 28.7041 13.6498 25.7729 16.5801C25.6736 16.6794 25.6182 16.813 25.6182 16.9527C25.6182 17.0925 25.6736 17.227 25.7729 17.3254L27.3145 18.8661ZM36.7452 13.0908C40.4313 13.0908 43.9074 14.461 46.5907 16.9598L45.7953 17.7552C43.3256 15.4674 40.1316 14.2141 36.7452 14.2141C33.3588 14.2141 30.1657 15.4674 27.6942 17.7552L26.8988 16.9598C29.5839 14.461 33.0591 13.0908 36.7452 13.0908ZM36.7452 25.1046C35.3961 25.1046 34.2992 26.2023 34.2992 27.5506C34.2992 28.8997 35.397 29.9966 36.7452 29.9966C38.0943 29.9966 39.1912 28.8988 39.1912 27.5506C39.1921 26.2023 38.0943 25.1046 36.7452 25.1046ZM36.7452 28.9428C35.9779 28.9428 35.3539 28.3187 35.3539 27.5515C35.3539 26.7842 35.9779 26.1602 36.7452 26.1602C37.5125 26.1602 38.1365 26.7842 38.1365 27.5515C38.1365 28.3187 37.5125 28.9428 36.7452 28.9428ZM50.5554 35.423L40.9244 24.1176L41.5554 23.4865C41.7611 23.2809 41.7611 22.9469 41.5554 22.7412C40.2705 21.4563 38.5628 20.7487 36.7452 20.7487C35.3258 20.7487 33.9731 21.182 32.8367 21.9836H31.0947C31.1096 21.9713 31.1263 21.9607 31.1404 21.9467C32.6372 20.4499 34.6279 19.6255 36.7452 19.6255C38.8625 19.6255 40.8523 20.4499 42.35 21.9467C42.4528 22.0495 42.5882 22.1014 42.7226 22.1014C42.8571 22.1014 42.9925 22.0495 43.0953 21.9467L44.6351 20.4068C44.8408 20.2012 44.8408 19.8672 44.6351 19.6615C42.5275 17.5539 39.7256 16.3929 36.7443 16.3929C33.7631 16.3929 30.9611 17.5539 28.8535 19.6615C28.6478 19.8672 28.6478 20.2012 28.8535 20.4068L30.3933 21.9467C30.4074 21.9607 30.4232 21.9713 30.439 21.9836H20.1356C19.9809 21.9836 19.8342 22.0513 19.734 22.169L11.6656 31.641H11.5619V31.7632L8.44441 35.423C8.25545 35.6444 8.28182 35.9775 8.50418 36.1665C8.72566 36.3555 9.05877 36.3291 9.24773 36.1067L11.5628 33.3892V48.4369C11.5628 48.7278 11.7992 48.9643 12.0901 48.9643H28.4536H47.1804C47.4714 48.9643 47.7078 48.7278 47.7078 48.4369V36.2922H50.1538C50.3595 36.2922 50.5467 36.1727 50.6328 35.9863C50.7189 35.7991 50.6882 35.5794 50.5554 35.423ZM29.9829 20.043C31.8418 18.3651 34.2227 17.4467 36.7452 17.4467C39.2677 17.4467 41.6486 18.3651 43.5075 20.043L42.7121 20.8384C41.0668 19.3715 38.9679 18.5699 36.7452 18.5699C34.5224 18.5699 32.4236 19.3715 30.7783 20.8384L29.9829 20.043ZM36.7452 21.8034C38.1031 21.8034 39.3898 22.271 40.4199 23.1306L39.6219 23.9295C38.8071 23.28 37.8034 22.9267 36.7452 22.9267C35.687 22.9267 34.6842 23.2791 33.8685 23.9295L33.0696 23.1306C34.1006 22.271 35.3873 21.8034 36.7452 21.8034ZM23.3533 47.9096H16.9188V38.464C16.9188 36.7035 18.3506 35.2718 20.111 35.2718H20.1611C21.9216 35.2718 23.3533 36.7035 23.3533 38.464V47.9096ZM24.408 47.9096V38.464C24.408 36.1226 22.5025 34.2171 20.1611 34.2171H20.111C17.7696 34.2171 15.8641 36.1226 15.8641 38.464V47.9096H12.6166V32.1508L20.1365 23.3239L27.9254 32.4672V47.9096H24.408ZM37.6215 39.69C37.2673 39.69 36.9799 39.4018 36.9799 39.0476C36.9799 38.6934 37.2681 38.4051 37.6215 38.4051C37.9748 38.4051 38.2639 38.6934 38.2639 39.0476C38.2639 39.4018 37.9757 39.69 37.6215 39.69ZM46.6522 47.9096H40.5614V43.4983L42.1962 43.0606C42.4994 43.5238 43.0223 43.8314 43.6156 43.8314C44.5516 43.8314 45.3128 43.0703 45.3128 42.1343C45.3128 41.1982 44.5516 40.4371 43.6156 40.4371C42.7112 40.4371 41.972 41.149 41.9237 42.0411L39.897 42.5843C39.6667 42.6458 39.5058 42.855 39.5058 43.094V47.9104H38.1479V40.6604C38.8256 40.438 39.3178 39.7999 39.3178 39.0484C39.3178 38.1124 38.5566 37.3513 37.6206 37.3513C36.6854 37.3513 35.9243 38.1124 35.9243 39.0484C35.9243 39.7999 36.4156 40.438 37.0932 40.6604V47.9104H35.7353V43.7146C35.7353 43.4772 35.5762 43.2689 35.3469 43.2057L33.7068 42.7565C33.6629 41.8592 32.922 41.1429 32.014 41.1429C31.078 41.1429 30.3169 41.904 30.3169 42.84C30.3169 43.7752 31.078 44.5363 32.014 44.5363C32.6047 44.5363 33.125 44.2331 33.4291 43.7743L34.6806 44.1171V47.9113H28.9783V33.7056L31.0235 36.1067C31.1281 36.2289 31.2758 36.2922 31.4252 36.2922H46.6505V47.9096H46.6522ZM42.974 42.1334C42.974 41.7792 43.2623 41.4909 43.6165 41.4909C43.9707 41.4909 44.259 41.7792 44.259 42.1334C44.259 42.4876 43.9707 42.7759 43.6165 42.7759C43.2623 42.7759 42.974 42.4876 42.974 42.1334ZM32.6574 42.8383C32.6574 43.1925 32.3691 43.4799 32.0149 43.4799C31.6607 43.4799 31.3724 43.1916 31.3724 42.8383C31.3724 42.485 31.6607 42.1958 32.0149 42.1958C32.3691 42.1958 32.6574 42.485 32.6574 42.8383ZM31.6704 35.2375L21.2782 23.0383H31.7882C31.7653 23.1974 31.8128 23.3644 31.9358 23.4865L33.4757 25.0264C33.5741 25.1257 33.7086 25.1811 33.8483 25.1811C33.9881 25.1811 34.1225 25.1257 34.221 25.0264C34.8951 24.3522 35.7916 23.9805 36.7452 23.9805C37.6988 23.9805 38.5953 24.3514 39.2694 25.0264C39.3679 25.1257 39.5023 25.1811 39.6421 25.1811C39.7818 25.1811 39.9163 25.1257 40.0147 25.0264L40.1756 24.8655L49.0112 35.2366H31.6704V35.2375Z" stroke="black" stroke-width="0.4" mask="url(#path-2-outside-1_9225_2280)"></path></svg>