<svg width="60" height="60" viewBox="0 0 60 60" fill="none" xmlns="http://www.w3.org/2000/svg"><rect x="0.525" y="0.525" width="58.95" height="58.95" rx="6.975" stroke="#210F28" stroke-width="1.05" stroke-dasharray="3 3"></rect><path d="M42.6688 36.9188L41.4109 33.7745C40.9445 32.5978 40.1345 31.589 39.0863 30.8795C38.0382 30.17 36.8006 29.7927 35.5349 29.7969H31.6094V28.3906C31.6094 27.8312 31.3871 27.2947 30.9916 26.8991C30.596 26.5035 30.0594 26.2813 29.5 26.2812C28.9406 26.2813 28.404 26.5035 28.0084 26.8991C27.6129 27.2947 27.3906 27.8312 27.3906 28.3906V29.7969H20.6526C19.3869 29.7927 18.1493 30.17 17.1012 30.8795C16.053 31.589 15.243 32.5978 14.7766 33.7745L13.5552 36.8281H10.5156C9.95618 36.8281 9.41966 37.0504 9.02407 37.4459C8.62849 37.8415 8.40625 38.3781 8.40625 38.9375V43.1562C8.40647 43.2951 8.44755 43.4308 8.52437 43.5465L11.3369 47.7652C11.4011 47.8615 11.4881 47.9404 11.5902 47.995C11.6922 48.0496 11.8061 48.0781 11.9219 48.0781H14.7977C14.9629 49.0607 15.471 49.953 16.2318 50.5965C16.9925 51.24 17.9567 51.5931 18.9531 51.5931C19.9495 51.5931 20.9137 51.24 21.6745 50.5965C22.4352 49.953 22.9433 49.0607 23.1086 48.0781H36.5945C36.7598 49.0607 37.2679 49.953 38.0287 50.5965C38.7894 51.24 39.7536 51.5931 40.75 51.5931C41.7464 51.5931 42.7106 51.24 43.4713 50.5965C44.2321 49.953 44.7402 49.0607 44.9055 48.0781H49.8906C50.0771 48.0781 50.2559 48.004 50.3878 47.8722C50.5197 47.7403 50.5938 47.5615 50.5938 47.375V45.9688C50.59 43.7571 49.7851 41.6218 48.3281 39.9579C46.8711 38.2941 44.8606 37.2144 42.6688 36.9188ZM47.4142 41.0469H44.6418L44.1735 40.3438H46.7448C46.9822 40.5642 47.2057 40.799 47.4142 41.0469ZM40.1017 34.2969L41.1142 36.8281H28.7969V31.2031H35.5349C36.5194 31.1998 37.482 31.4931 38.2973 32.045C39.1126 32.5969 39.7426 33.3816 40.1052 34.2969H40.1017ZM28.7969 40.3438H29.8516C29.9448 40.3438 30.0342 40.3808 30.1002 40.4467C30.1661 40.5127 30.2031 40.6021 30.2031 40.6953C30.2031 40.7886 30.1661 40.878 30.1002 40.9439C30.0342 41.0098 29.9448 41.0469 29.8516 41.0469H28.7969V40.3438ZM29.5 27.6875C29.6865 27.6875 29.8653 27.7616 29.9972 27.8934C30.129 28.0253 30.2031 28.2041 30.2031 28.3906V29.7969H28.7969V28.3906C28.7969 28.2041 28.871 28.0253 29.0028 27.8934C29.1347 27.7616 29.3135 27.6875 29.5 27.6875ZM16.0823 34.2969C16.4449 33.3816 17.0749 32.5969 17.8902 32.045C18.7055 31.4931 19.6681 31.1998 20.6526 31.2031H27.3906V36.8281H15.0698L16.0823 34.2969ZM9.8125 40.3438H12.014L11.5457 41.0469H9.8125V40.3438ZM18.9531 50.1875C18.3969 50.1875 17.8531 50.0225 17.3906 49.7135C16.9281 49.4045 16.5676 48.9652 16.3547 48.4513C16.1418 47.9374 16.0861 47.3719 16.1947 46.8263C16.3032 46.2807 16.5711 45.7796 16.9644 45.3863C17.3577 44.9929 17.8589 44.7251 18.4044 44.6165C18.95 44.508 19.5155 44.5637 20.0294 44.7766C20.5433 44.9895 20.9826 45.3499 21.2916 45.8125C21.6007 46.275 21.7656 46.8187 21.7656 47.375C21.7656 48.1209 21.4693 48.8363 20.9419 49.3637C20.4144 49.8912 19.699 50.1875 18.9531 50.1875ZM18.9531 43.1562C17.9571 43.1581 16.9938 43.5119 16.2334 44.1552C15.473 44.7986 14.9645 45.6899 14.7977 46.6719H12.298L9.8125 42.9453V42.4531H11.9219C12.0376 42.4531 12.1515 42.4246 12.2536 42.37C12.3556 42.3154 12.4426 42.2365 12.5069 42.1402L13.9131 40.0309C13.9838 39.925 14.0244 39.8019 14.0305 39.6747C14.0367 39.5476 14.0082 39.4212 13.9482 39.3089C13.8881 39.1967 13.7987 39.1028 13.6895 39.0374C13.5803 38.972 13.4554 38.9375 13.3281 38.9375H9.8125C9.8125 38.751 9.88658 38.5722 10.0184 38.4403C10.1503 38.3085 10.3291 38.2344 10.5156 38.2344H27.3906V46.6719H23.1086C22.9418 45.6899 22.4332 44.7986 21.6728 44.1552C20.9124 43.5119 19.9491 43.1581 18.9531 43.1562ZM40.75 50.1875C40.1937 50.1875 39.65 50.0225 39.1875 49.7135C38.7249 49.4045 38.3645 48.9652 38.1516 48.4513C37.9387 47.9374 37.883 47.3719 37.9915 46.8263C38.1001 46.2807 38.3679 45.7796 38.7613 45.3863C39.1546 44.9929 39.6557 44.7251 40.2013 44.6165C40.7469 44.508 41.3124 44.5637 41.8263 44.7766C42.3402 44.9895 42.7795 45.3499 43.0885 45.8125C43.3975 46.275 43.5625 46.8187 43.5625 47.375C43.5625 48.1209 43.2662 48.8363 42.7387 49.3637C42.2113 49.8912 41.4959 50.1875 40.75 50.1875ZM49.1875 46.6719H44.9055C44.7402 45.6893 44.2321 44.797 43.4713 44.1535C42.7106 43.51 41.7464 43.1569 40.75 43.1569C39.7536 43.1569 38.7894 43.51 38.0287 44.1535C37.2679 44.797 36.7598 45.6893 36.5945 46.6719H28.7969V42.4531H29.8516C30.3178 42.4531 30.7649 42.2679 31.0945 41.9383C31.4242 41.6086 31.6094 41.1615 31.6094 40.6953C31.6094 40.2291 31.4242 39.782 31.0945 39.4524C30.7649 39.1227 30.3178 38.9375 29.8516 38.9375H28.7969V38.2344H41.4531C42.5589 38.2353 43.6514 38.4751 44.6559 38.9375H42.8594C42.7321 38.9375 42.6072 38.972 42.498 39.0374C42.3888 39.1028 42.2994 39.1967 42.2393 39.3089C42.1793 39.4212 42.1508 39.5476 42.157 39.6747C42.1631 39.8019 42.2037 39.925 42.2744 40.0309L43.6806 42.1402C43.7449 42.2365 43.8319 42.3154 43.9339 42.37C44.036 42.4246 44.1499 42.4531 44.2656 42.4531H48.3332C48.894 43.5402 49.1869 44.7455 49.1875 45.9688V46.6719Z" fill="#210F28"></path><path d="M29.5 9.40625C27.9703 9.40625 26.4749 9.85986 25.203 10.7097C23.9311 11.5596 22.9398 12.7675 22.3544 14.1808C21.769 15.5941 21.6158 17.1492 21.9142 18.6495C22.2127 20.1498 22.9493 21.528 24.031 22.6097C25.1126 23.6913 26.4908 24.428 27.9911 24.7264C29.4914 25.0248 31.0465 24.8717 32.4598 24.2863C33.8731 23.7009 35.081 22.7095 35.9309 21.4376C36.7808 20.1657 37.2344 18.6703 37.2344 17.1406C37.2331 15.0897 36.4178 13.1232 34.9676 11.673C33.5174 10.2228 31.5509 9.40755 29.5 9.40625ZM23.1719 17.1406C23.1745 15.4631 23.842 13.855 25.0282 12.6688C26.2144 11.4827 27.8225 10.8151 29.5 10.8125C30.9355 10.8111 32.3279 11.3026 33.4445 12.2047L24.5641 21.0852C23.6619 19.9686 23.1705 18.5761 23.1719 17.1406ZM29.5 23.4688C28.0645 23.4701 26.6721 22.9787 25.5555 22.0766L34.4359 13.1961C35.3381 14.3127 35.8295 15.7051 35.8281 17.1406C35.8255 18.8181 35.158 20.4262 33.9718 21.6124C32.7856 22.7986 31.1775 23.4661 29.5 23.4688Z" fill="#210F28"></path><path d="M41.4531 46.6719H40.0469V48.0781H41.4531V46.6719Z" fill="#210F28"></path><path d="M19.6562 46.6719H18.25V48.0781H19.6562V46.6719Z" fill="#210F28"></path><path d="M40.0469 16.4375H38.6406V17.8438H40.0469V16.4375Z" fill="#210F28"></path><path d="M45.6719 30.5H47.0781V17.1406C47.0781 16.9541 47.004 16.7753 46.8722 16.6434C46.7403 16.5116 46.5615 16.4375 46.375 16.4375H41.4531V17.8438H45.6719V30.5Z" fill="#210F28"></path><path d="M20.3594 16.4375H18.9531V17.8438H20.3594V16.4375Z" fill="#210F28"></path><path d="M12.625 17.8438H17.5469V16.4375H11.9219C11.7354 16.4375 11.5566 16.5116 11.4247 16.6434C11.2928 16.7753 11.2188 16.9541 11.2188 17.1406V30.5H12.625V17.8438Z" fill="#210F28"></path></svg>